<?xml version="1.0" standalone="no"?>
<!DOCTYPE svg PUBLIC "-//W3C//DTD SVG 20010904//EN"
 "http://www.w3.org/TR/2001/REC-SVG-20010904/DTD/svg10.dtd">
<svg version="1.0" xmlns="http://www.w3.org/2000/svg"
 width="1920.000000pt" height="1080.000000pt" viewBox="0 0 1920.000000 1080.000000"
 preserveAspectRatio="xMidYMid meet">

<g transform="translate(0.000000,1080.000000) scale(0.100000,-0.100000)"
fill="#000000" stroke="none">
<path d="M710 6361 c-46 -9 -77 -27 -90 -51 -16 -30 -12 -168 10 -322 40 -278
50 -426 60 -873 11 -538 33 -825 76 -1005 16 -70 26 -87 64 -113 34 -24 132
-22 187 2 75 34 91 98 74 286 -10 119 -21 347 -41 909 -20 534 -71 955 -131
1082 -31 65 -121 102 -209 85z"/>
<path d="M17270 6259 c-44 -18 -80 -61 -97 -118 -11 -38 -17 -119 -22 -262 -4
-149 -10 -212 -19 -221 -7 -7 -44 -18 -83 -24 -198 -34 -266 -210 -130 -338
27 -26 40 -30 128 -37 54 -5 104 -11 111 -14 22 -8 32 -53 67 -299 59 -418
110 -571 232 -697 116 -120 228 -154 372 -110 84 26 235 123 282 182 81 102
78 217 -6 286 -69 57 -136 47 -271 -41 -109 -70 -140 -73 -161 -11 -34 100
-113 576 -113 687 0 33 5 60 12 64 6 4 77 10 158 14 160 7 192 17 234 73 17
23 21 43 21 101 0 139 -49 168 -286 174 l-156 4 -6 197 c-9 262 -29 338 -100
381 -35 22 -123 26 -167 9z"/>
<path d="M18501 6194 c-108 -56 -123 -248 -25 -334 29 -25 43 -30 89 -30 45 0
60 5 96 33 50 38 89 106 89 156 0 119 -150 224 -249 175z"/>
<path d="M7112 5980 c-65 -15 -59 -1 -262 -584 -95 -274 -111 -309 -135 -300
-17 7 -65 87 -140 237 -64 126 -132 217 -219 289 -159 134 -290 147 -363 38
-51 -74 -23 -159 97 -295 101 -116 155 -206 306 -510 180 -365 242 -447 338
-447 74 0 161 79 217 197 72 153 327 871 375 1054 43 166 28 255 -51 297 -47
25 -116 36 -163 24z"/>
<path d="M9743 5906 c-155 -51 -277 -202 -352 -439 -91 -287 -78 -605 36 -836
43 -87 138 -190 217 -236 214 -124 485 -109 741 42 166 98 246 189 247 281 0
74 -28 114 -107 153 -79 38 -90 36 -202 -37 -293 -190 -493 -200 -569 -27 -76
172 -47 560 51 690 57 74 142 79 271 18 91 -44 153 -105 198 -192 38 -77 98
-137 145 -148 46 -10 134 19 164 55 93 110 34 326 -133 488 -68 67 -199 132
-336 168 -121 32 -304 42 -371 20z"/>
<path d="M11234 5902 c-66 -23 -146 -82 -196 -146 -87 -110 -164 -309 -192
-498 -20 -131 -20 -215 -2 -338 37 -241 127 -406 277 -506 113 -75 191 -98
329 -99 147 0 232 20 375 91 118 58 219 133 271 202 59 77 55 178 -10 227 -47
36 -124 68 -150 61 -12 -3 -68 -35 -125 -72 -131 -84 -196 -113 -296 -130 -86
-16 -119 -12 -177 17 -39 20 -81 80 -99 141 -33 115 -28 373 10 511 24 86 72
160 118 182 50 24 118 14 207 -28 96 -46 156 -101 195 -181 60 -122 126 -174
206 -162 59 9 120 52 141 97 29 66 16 171 -35 274 -49 99 -146 204 -232 252
-183 102 -478 152 -615 105z"/>
<path d="M8125 5861 c-99 -28 -164 -70 -266 -171 -234 -232 -345 -507 -296
-737 45 -210 212 -455 362 -531 82 -41 134 -53 220 -54 185 0 307 76 451 284
41 59 80 110 85 114 17 10 25 -11 49 -125 34 -165 60 -261 80 -301 25 -48 71
-70 149 -70 118 0 171 54 171 173 0 136 -142 827 -217 1052 -30 90 -76 148
-178 220 -200 143 -430 198 -610 146z m282 -381 c48 -21 83 -69 83 -115 0 -42
-44 -198 -84 -296 -81 -201 -205 -370 -259 -353 -87 26 -201 193 -213 311 -12
114 45 270 133 364 104 112 218 141 340 89z"/>
<path d="M1424 5830 c-137 -31 -160 -130 -81 -350 56 -156 80 -266 112 -512
47 -361 75 -486 117 -525 16 -15 42 -23 88 -28 78 -7 111 9 159 79 49 71 75
154 120 379 42 207 83 366 115 442 45 107 100 100 159 -20 35 -70 61 -161 97
-332 41 -202 66 -289 98 -347 38 -69 70 -91 135 -90 137 2 182 93 159 317 -22
203 -73 423 -136 578 -83 204 -245 360 -390 376 -49 6 -147 -17 -208 -48 -24
-12 -84 -62 -134 -110 -49 -49 -93 -89 -96 -89 -3 0 -23 30 -43 68 -94 172
-173 234 -271 212z"/>
<path d="M3035 5830 c-115 -27 -154 -109 -117 -245 11 -38 34 -109 51 -156 40
-110 63 -227 95 -471 46 -349 83 -505 124 -527 9 -5 45 -12 79 -16 72 -8 110
8 153 67 60 82 76 133 139 443 93 461 161 560 259 377 36 -66 67 -177 111
-392 65 -312 124 -404 245 -385 104 17 142 77 140 225 -2 240 -88 588 -191
775 -78 141 -213 253 -327 270 -112 17 -238 -39 -357 -160 -46 -47 -86 -85
-90 -85 -4 0 -29 37 -55 83 -61 106 -96 149 -142 174 -47 26 -79 32 -117 23z"/>
<path d="M14765 5828 c-92 -32 -132 -98 -146 -237 -17 -164 -38 -260 -94 -427
-62 -189 -112 -300 -149 -333 l-26 -24 -25 23 c-53 50 -126 300 -165 570 -32
218 -46 266 -91 311 -21 21 -50 41 -65 45 -66 17 -174 -55 -196 -129 -8 -27
-12 -107 -12 -217 1 -142 5 -195 23 -280 56 -263 151 -460 292 -601 125 -126
253 -162 369 -104 76 38 148 92 164 123 l13 25 32 -60 c46 -86 86 -121 152
-135 66 -14 122 -4 149 25 46 49 53 111 46 392 -19 730 -34 919 -81 980 -46
61 -114 80 -190 53z"/>
<path d="M15363 5830 c-121 -27 -154 -138 -92 -310 74 -205 89 -271 129 -580
45 -343 80 -483 127 -508 37 -20 128 -25 160 -8 90 46 139 159 193 441 63 334
126 517 181 523 20 2 34 -5 54 -30 55 -64 86 -157 135 -393 73 -353 119 -439
235 -439 137 0 180 90 157 324 -40 393 -171 732 -333 860 -175 138 -344 115
-536 -73 -51 -50 -95 -89 -97 -86 -2 2 -23 38 -46 79 -93 165 -169 222 -267
200z"/>
<path d="M4983 5806 c-209 -51 -396 -313 -454 -636 -21 -113 -18 -427 4 -509
27 -101 83 -196 161 -275 125 -127 222 -175 371 -183 257 -14 493 135 585 368
40 101 52 187 60 434 7 223 9 245 34 316 14 41 26 85 26 98 0 80 -110 177
-320 281 -124 62 -188 86 -276 105 -82 17 -121 18 -191 1z m195 -380 c85 -44
133 -153 163 -361 26 -182 -14 -373 -89 -435 -66 -54 -160 -74 -225 -46 -65
27 -133 141 -157 264 -33 167 35 421 142 531 56 57 114 74 166 47z"/>
<path d="M12802 5804 c-170 -45 -319 -213 -409 -459 -45 -124 -70 -379 -54
-559 16 -181 61 -282 183 -406 114 -116 221 -168 364 -177 228 -15 463 114
558 308 64 131 77 203 86 479 7 227 9 251 34 323 42 125 34 162 -54 239 -147
129 -477 270 -622 267 -18 0 -57 -7 -86 -15z m196 -378 c78 -41 127 -138 156
-305 35 -208 9 -395 -68 -479 -56 -62 -181 -90 -246 -54 -48 26 -103 107 -131
194 -35 106 -32 250 6 368 48 149 104 235 180 274 37 20 68 20 103 2z"/>
<path d="M18474 5556 c-44 -20 -81 -73 -95 -137 -23 -106 9 -375 76 -634 46
-181 84 -226 189 -226 138 0 179 83 156 321 -37 396 -73 589 -123 652 -30 38
-141 51 -203 24z"/>
<path d="M10460 1324 c-213 -46 -459 -272 -555 -511 -59 -146 -82 -394 -50
-532 18 -76 62 -166 113 -234 l36 -47 384 0 c372 0 385 1 413 21 l29 20 0 -20
c0 -20 5 -21 182 -21 l181 0 -6 333 c-10 472 -30 702 -68 784 -23 47 -71 82
-193 139 -164 75 -323 99 -466 68z m238 -385 c31 -10 32 -13 32 -64 0 -88 -84
-374 -147 -499 -51 -103 -135 -155 -229 -142 -94 12 -125 58 -131 191 -10 201
77 408 205 487 74 46 176 56 270 27z"/>
<path d="M8355 1250 c-41 -9 -65 -23 -95 -55 -20 -21 -25 -38 -28 -93 -4 -69
2 -92 63 -260 38 -107 61 -219 94 -478 17 -126 36 -258 44 -294 l13 -65 176
-3 177 -2 20 65 c11 35 34 136 51 222 64 335 127 515 181 521 20 2 34 -5 54
-30 55 -64 86 -157 135 -393 34 -166 62 -266 92 -337 l20 -48 128 0 127 0 12
27 c57 126 -30 636 -149 874 -115 230 -283 346 -449 310 -96 -21 -160 -59
-258 -154 -51 -50 -95 -89 -97 -86 -2 2 -23 38 -46 79 -92 163 -170 222 -265
200z"/>
</g>
</svg>
