<svg xmlns="http://www.w3.org/2000/svg" xmlns:xlink="http://www.w3.org/1999/xlink" width="1920" zoomAndPan="magnify" viewBox="0 0 1440 809.999993" height="1080" preserveAspectRatio="xMidYMid meet" version="1.0"><defs><g/><clipPath id="f05ad33ec3"><path d="M 1171 361 L 1194 361 L 1194 377.464844 L 1171 377.464844 Z M 1171 361 " clip-rule="nonzero"/></clipPath><clipPath id="e89ed162df"><path d="M 1190 152.464844 L 1198 152.464844 L 1198 201 L 1190 201 Z M 1190 152.464844 " clip-rule="nonzero"/></clipPath><clipPath id="7ae33375d9"><path d="M 1260 298 L 1311.597656 298 L 1311.597656 305 L 1260 305 Z M 1260 298 " clip-rule="nonzero"/></clipPath><clipPath id="9ada6c1ccc"><path d="M 1061.847656 278 L 1090 278 L 1090 286 L 1061.847656 286 Z M 1061.847656 278 " clip-rule="nonzero"/></clipPath></defs><path fill="#ffd00b" d="M 1259.09375 273.511719 C 1259.09375 274.835938 1259.0625 276.15625 1258.996094 277.476562 C 1258.929688 278.796875 1258.832031 280.113281 1258.703125 281.429688 C 1258.574219 282.746094 1258.414062 284.054688 1258.21875 285.363281 C 1258.023438 286.671875 1257.796875 287.972656 1257.539062 289.269531 C 1257.28125 290.566406 1256.992188 291.855469 1256.671875 293.136719 C 1256.347656 294.421875 1255.996094 295.695312 1255.613281 296.960938 C 1255.226562 298.222656 1254.8125 299.480469 1254.367188 300.722656 C 1253.921875 301.96875 1253.445312 303.199219 1252.9375 304.421875 C 1252.433594 305.644531 1251.894531 306.851562 1251.332031 308.046875 C 1250.765625 309.242188 1250.171875 310.421875 1249.546875 311.585938 C 1248.921875 312.753906 1248.269531 313.902344 1247.589844 315.035156 C 1246.910156 316.171875 1246.203125 317.289062 1245.46875 318.386719 C 1244.730469 319.484375 1243.96875 320.566406 1243.183594 321.628906 C 1242.394531 322.6875 1241.578125 323.730469 1240.742188 324.753906 C 1239.902344 325.773438 1239.035156 326.777344 1238.148438 327.753906 C 1237.257812 328.734375 1236.347656 329.691406 1235.410156 330.625 C 1234.476562 331.5625 1233.519531 332.472656 1232.539062 333.359375 C 1231.558594 334.246094 1230.554688 335.109375 1229.53125 335.949219 C 1228.507812 336.789062 1227.46875 337.601562 1226.402344 338.386719 C 1225.339844 339.175781 1224.257812 339.9375 1223.160156 340.671875 C 1222.058594 341.40625 1220.941406 342.113281 1219.804688 342.792969 C 1218.671875 343.472656 1217.519531 344.121094 1216.355469 344.746094 C 1215.1875 345.371094 1214.003906 345.964844 1212.808594 346.527344 C 1211.613281 347.09375 1210.402344 347.628906 1209.179688 348.136719 C 1207.957031 348.640625 1206.722656 349.117188 1205.476562 349.5625 C 1204.230469 350.007812 1202.976562 350.421875 1201.710938 350.804688 C 1200.445312 351.1875 1199.167969 351.542969 1197.886719 351.863281 C 1196.601562 352.183594 1195.3125 352.472656 1194.011719 352.730469 C 1192.714844 352.988281 1191.410156 353.214844 1190.101562 353.410156 C 1188.792969 353.601562 1187.480469 353.765625 1186.164062 353.894531 C 1184.847656 354.023438 1183.527344 354.121094 1182.207031 354.1875 C 1180.882812 354.25 1179.5625 354.285156 1178.238281 354.285156 C 1176.914062 354.285156 1175.59375 354.25 1174.273438 354.1875 C 1172.949219 354.121094 1171.628906 354.023438 1170.3125 353.894531 C 1168.996094 353.765625 1167.683594 353.601562 1166.375 353.410156 C 1165.066406 353.214844 1163.761719 352.988281 1162.464844 352.730469 C 1161.167969 352.472656 1159.875 352.183594 1158.59375 351.863281 C 1157.308594 351.542969 1156.035156 351.1875 1154.769531 350.804688 C 1153.5 350.421875 1152.246094 350.007812 1151 349.5625 C 1149.753906 349.117188 1148.519531 348.640625 1147.296875 348.136719 C 1146.074219 347.628906 1144.867188 347.09375 1143.667969 346.527344 C 1142.472656 345.964844 1141.292969 345.371094 1140.125 344.746094 C 1138.957031 344.121094 1137.804688 343.472656 1136.671875 342.792969 C 1135.535156 342.113281 1134.417969 341.40625 1133.320312 340.671875 C 1132.21875 339.9375 1131.136719 339.175781 1130.074219 338.386719 C 1129.011719 337.601562 1127.96875 336.789062 1126.945312 335.949219 C 1125.921875 335.109375 1124.921875 334.246094 1123.941406 333.359375 C 1122.960938 332.472656 1122 331.5625 1121.066406 330.625 C 1120.128906 329.691406 1119.21875 328.734375 1118.328125 327.753906 C 1117.441406 326.777344 1116.578125 325.773438 1115.738281 324.753906 C 1114.898438 323.730469 1114.085938 322.6875 1113.296875 321.628906 C 1112.507812 320.566406 1111.746094 319.484375 1111.011719 318.386719 C 1110.277344 317.289062 1109.566406 316.171875 1108.886719 315.035156 C 1108.207031 313.902344 1107.554688 312.753906 1106.929688 311.585938 C 1106.308594 310.421875 1105.714844 309.242188 1105.148438 308.046875 C 1104.582031 306.851562 1104.046875 305.644531 1103.539062 304.421875 C 1103.03125 303.199219 1102.554688 301.96875 1102.109375 300.722656 C 1101.664062 299.480469 1101.25 298.222656 1100.867188 296.960938 C 1100.480469 295.695312 1100.128906 294.421875 1099.808594 293.136719 C 1099.484375 291.855469 1099.195312 290.566406 1098.9375 289.269531 C 1098.679688 287.972656 1098.453125 286.671875 1098.257812 285.363281 C 1098.066406 284.054688 1097.902344 282.746094 1097.773438 281.429688 C 1097.644531 280.113281 1097.546875 278.796875 1097.480469 277.476562 C 1097.417969 276.15625 1097.382812 274.835938 1097.382812 273.511719 C 1097.382812 272.191406 1097.417969 270.871094 1097.480469 269.550781 C 1097.546875 268.230469 1097.644531 266.910156 1097.773438 265.59375 C 1097.902344 264.28125 1098.066406 262.96875 1098.257812 261.660156 C 1098.453125 260.351562 1098.679688 259.050781 1098.9375 257.753906 C 1099.195312 256.457031 1099.484375 255.167969 1099.808594 253.886719 C 1100.128906 252.605469 1100.480469 251.332031 1100.867188 250.066406 C 1101.25 248.800781 1101.664062 247.546875 1102.109375 246.300781 C 1102.554688 245.058594 1103.03125 243.824219 1103.539062 242.601562 C 1104.046875 241.382812 1104.582031 240.171875 1105.148438 238.976562 C 1105.714844 237.785156 1106.308594 236.601562 1106.929688 235.4375 C 1107.554688 234.269531 1108.207031 233.121094 1108.886719 231.988281 C 1109.566406 230.855469 1110.277344 229.738281 1111.011719 228.636719 C 1111.746094 227.539062 1112.507812 226.457031 1113.296875 225.398438 C 1114.085938 224.335938 1114.898438 223.292969 1115.738281 222.273438 C 1116.578125 221.25 1117.441406 220.25 1118.328125 219.269531 C 1119.21875 218.289062 1120.128906 217.332031 1121.066406 216.398438 C 1122 215.464844 1122.960938 214.550781 1123.941406 213.664062 C 1124.921875 212.777344 1125.921875 211.914062 1126.945312 211.074219 C 1127.96875 210.238281 1129.011719 209.425781 1130.074219 208.636719 C 1131.136719 207.847656 1132.21875 207.089844 1133.320312 206.355469 C 1134.417969 205.621094 1135.535156 204.914062 1136.671875 204.234375 C 1137.804688 203.554688 1138.957031 202.902344 1140.125 202.277344 C 1141.292969 201.65625 1142.472656 201.0625 1143.667969 200.496094 C 1144.867188 199.929688 1146.074219 199.394531 1147.296875 198.890625 C 1148.519531 198.382812 1149.753906 197.90625 1151 197.460938 C 1152.246094 197.015625 1153.5 196.601562 1154.769531 196.21875 C 1156.035156 195.835938 1157.308594 195.484375 1158.59375 195.160156 C 1159.875 194.839844 1161.167969 194.550781 1162.464844 194.292969 C 1163.761719 194.035156 1165.066406 193.808594 1166.375 193.617188 C 1167.683594 193.421875 1168.996094 193.261719 1170.3125 193.128906 C 1171.628906 193 1172.949219 192.902344 1174.273438 192.839844 C 1175.59375 192.773438 1176.914062 192.742188 1178.238281 192.742188 C 1179.5625 192.742188 1180.882812 192.773438 1182.207031 192.839844 C 1183.527344 192.902344 1184.847656 193 1186.164062 193.128906 C 1187.480469 193.261719 1188.792969 193.421875 1190.101562 193.617188 C 1191.410156 193.808594 1192.714844 194.035156 1194.011719 194.292969 C 1195.3125 194.550781 1196.601562 194.839844 1197.886719 195.160156 C 1199.167969 195.484375 1200.445312 195.835938 1201.710938 196.21875 C 1202.976562 196.601562 1204.230469 197.015625 1205.476562 197.460938 C 1206.722656 197.90625 1207.957031 198.382812 1209.179688 198.890625 C 1210.402344 199.394531 1211.613281 199.929688 1212.808594 200.496094 C 1214.003906 201.0625 1215.1875 201.65625 1216.355469 202.277344 C 1217.519531 202.902344 1218.671875 203.554688 1219.804688 204.234375 C 1220.941406 204.914062 1222.058594 205.621094 1223.160156 206.355469 C 1224.257812 207.089844 1225.339844 207.847656 1226.402344 208.636719 C 1227.46875 209.425781 1228.507812 210.238281 1229.53125 211.074219 C 1230.554688 211.914062 1231.558594 212.777344 1232.539062 213.664062 C 1233.519531 214.550781 1234.476562 215.464844 1235.410156 216.398438 C 1236.347656 217.332031 1237.257812 218.289062 1238.148438 219.269531 C 1239.035156 220.25 1239.902344 221.25 1240.742188 222.273438 C 1241.578125 223.292969 1242.394531 224.335938 1243.183594 225.398438 C 1243.96875 226.457031 1244.730469 227.539062 1245.46875 228.636719 C 1246.203125 229.738281 1246.910156 230.855469 1247.589844 231.988281 C 1248.269531 233.121094 1248.921875 234.269531 1249.546875 235.4375 C 1250.171875 236.601562 1250.765625 237.785156 1251.332031 238.976562 C 1251.894531 240.171875 1252.433594 241.382812 1252.9375 242.601562 C 1253.445312 243.824219 1253.921875 245.058594 1254.367188 246.300781 C 1254.8125 247.546875 1255.226562 248.800781 1255.613281 250.066406 C 1255.996094 251.332031 1256.347656 252.605469 1256.671875 253.886719 C 1256.992188 255.167969 1257.28125 256.457031 1257.539062 257.753906 C 1257.796875 259.050781 1258.023438 260.351562 1258.21875 261.660156 C 1258.414062 262.96875 1258.574219 264.28125 1258.703125 265.59375 C 1258.832031 266.910156 1258.929688 268.230469 1258.996094 269.550781 C 1259.0625 270.871094 1259.09375 272.191406 1259.09375 273.511719 Z M 1259.09375 273.511719 " fill-opacity="0.16" fill-rule="nonzero"/><path fill="#ffd00b" d="M 1240.421875 274.898438 C 1240.421875 276.925781 1240.324219 278.945312 1240.125 280.960938 C 1239.925781 282.980469 1239.628906 284.980469 1239.230469 286.96875 C 1238.835938 288.953125 1238.34375 290.917969 1237.753906 292.855469 C 1237.167969 294.792969 1236.484375 296.699219 1235.707031 298.570312 C 1234.933594 300.441406 1234.066406 302.269531 1233.109375 304.054688 C 1232.15625 305.84375 1231.113281 307.578125 1229.988281 309.261719 C 1228.859375 310.945312 1227.652344 312.570312 1226.367188 314.136719 C 1225.082031 315.703125 1223.722656 317.203125 1222.289062 318.636719 C 1220.851562 320.066406 1219.351562 321.425781 1217.785156 322.710938 C 1216.21875 323.996094 1214.589844 325.203125 1212.90625 326.328125 C 1211.21875 327.453125 1209.480469 328.492188 1207.695312 329.449219 C 1205.90625 330.402344 1204.074219 331.269531 1202.199219 332.042969 C 1200.328125 332.816406 1198.421875 333.5 1196.480469 334.085938 C 1194.539062 334.675781 1192.574219 335.167969 1190.585938 335.5625 C 1188.597656 335.957031 1186.59375 336.253906 1184.574219 336.453125 C 1182.558594 336.652344 1180.535156 336.75 1178.507812 336.75 C 1176.480469 336.75 1174.457031 336.652344 1172.4375 336.453125 C 1170.421875 336.253906 1168.417969 335.957031 1166.429688 335.5625 C 1164.4375 335.167969 1162.476562 334.675781 1160.535156 334.085938 C 1158.59375 333.5 1156.6875 332.816406 1154.8125 332.042969 C 1152.941406 331.269531 1151.109375 330.402344 1149.320312 329.449219 C 1147.53125 328.492188 1145.796875 327.453125 1144.109375 326.328125 C 1142.421875 325.203125 1140.796875 323.996094 1139.230469 322.710938 C 1137.660156 321.425781 1136.160156 320.066406 1134.726562 318.636719 C 1133.292969 317.203125 1131.933594 315.703125 1130.644531 314.136719 C 1129.359375 312.570312 1128.152344 310.945312 1127.027344 309.261719 C 1125.898438 307.578125 1124.859375 305.84375 1123.902344 304.054688 C 1122.949219 302.269531 1122.082031 300.441406 1121.304688 298.570312 C 1120.53125 296.699219 1119.847656 294.792969 1119.257812 292.855469 C 1118.667969 290.917969 1118.175781 288.953125 1117.78125 286.96875 C 1117.386719 284.980469 1117.089844 282.980469 1116.890625 280.960938 C 1116.691406 278.945312 1116.59375 276.925781 1116.59375 274.898438 C 1116.59375 272.875 1116.691406 270.855469 1116.890625 268.839844 C 1117.089844 266.820312 1117.386719 264.820312 1117.78125 262.832031 C 1118.179688 260.847656 1118.667969 258.882812 1119.257812 256.945312 C 1119.847656 255.007812 1120.53125 253.101562 1121.304688 251.230469 C 1122.082031 249.359375 1122.949219 247.53125 1123.902344 245.746094 C 1124.859375 243.957031 1125.902344 242.222656 1127.027344 240.539062 C 1128.152344 238.855469 1129.359375 237.230469 1130.644531 235.664062 C 1131.933594 234.097656 1133.292969 232.597656 1134.726562 231.164062 C 1136.160156 229.734375 1137.660156 228.375 1139.230469 227.089844 C 1140.796875 225.804688 1142.421875 224.597656 1144.109375 223.472656 C 1145.796875 222.347656 1147.53125 221.308594 1149.320312 220.351562 C 1151.109375 219.398438 1152.941406 218.53125 1154.8125 217.757812 C 1156.6875 216.984375 1158.59375 216.300781 1160.535156 215.714844 C 1162.476562 215.125 1164.4375 214.632812 1166.429688 214.238281 C 1168.417969 213.84375 1170.421875 213.546875 1172.4375 213.347656 C 1174.457031 213.148438 1176.480469 213.050781 1178.507812 213.050781 C 1180.535156 213.050781 1182.558594 213.148438 1184.574219 213.347656 C 1186.59375 213.546875 1188.597656 213.84375 1190.585938 214.238281 C 1192.574219 214.632812 1194.539062 215.125 1196.480469 215.714844 C 1198.421875 216.300781 1200.328125 216.984375 1202.199219 217.757812 C 1204.074219 218.53125 1205.90625 219.398438 1207.695312 220.351562 C 1209.480469 221.308594 1211.21875 222.347656 1212.90625 223.472656 C 1214.589844 224.597656 1216.21875 225.804688 1217.785156 227.089844 C 1219.351562 228.375 1220.851562 229.734375 1222.289062 231.164062 C 1223.722656 232.597656 1225.082031 234.097656 1226.367188 235.664062 C 1227.652344 237.230469 1228.859375 238.855469 1229.988281 240.539062 C 1231.113281 242.222656 1232.15625 243.957031 1233.109375 245.746094 C 1234.066406 247.53125 1234.933594 249.359375 1235.707031 251.230469 C 1236.484375 253.101562 1237.167969 255.007812 1237.753906 256.945312 C 1238.34375 258.882812 1238.835938 260.847656 1239.230469 262.832031 C 1239.628906 264.820312 1239.925781 266.820312 1240.125 268.839844 C 1240.324219 270.855469 1240.421875 272.875 1240.421875 274.898438 Z M 1240.421875 274.898438 " fill-opacity="0.3" fill-rule="nonzero"/><path fill="#ffd00b" d="M 1222.214844 288.34375 C 1221.691406 291.445312 1220.800781 294.441406 1219.539062 297.324219 C 1218.277344 300.210938 1216.679688 302.898438 1214.753906 305.386719 C 1211.515625 309.761719 1207.699219 313.554688 1203.296875 316.757812 C 1199.925781 319.195312 1196.398438 321.386719 1192.71875 323.332031 C 1189.671875 324.941406 1187.28125 326.085938 1185.625 326.839844 L 1183.1875 327.960938 L 1185.429688 327.472656 C 1186.964844 327.109375 1189.28125 326.523438 1192.253906 325.597656 C 1196 324.472656 1199.628906 323.058594 1203.152344 321.363281 C 1203.394531 321.363281 1203.613281 321.117188 1203.859375 320.996094 C 1203.925781 321.203125 1203.980469 321.414062 1204.027344 321.628906 C 1204.09375 322.199219 1204.09375 322.765625 1204.027344 323.332031 C 1203.910156 324.367188 1203.617188 325.34375 1203.148438 326.269531 C 1202.679688 327.195312 1202.0625 328.011719 1201.296875 328.714844 C 1198.636719 330.882812 1195.648438 332.398438 1192.328125 333.269531 C 1187.824219 334.777344 1183.199219 335.695312 1178.457031 336.019531 C 1174.1875 336.296875 1169.9375 336.109375 1165.710938 335.460938 C 1163.898438 335.242188 1162.136719 334.828125 1160.421875 334.21875 C 1159.0625 333.75 1157.957031 332.9375 1157.105469 331.785156 C 1156.777344 331.332031 1156.574219 330.832031 1156.496094 330.28125 C 1156.421875 329.726562 1156.476562 329.191406 1156.667969 328.667969 C 1156.960938 327.679688 1157.515625 326.867188 1158.324219 326.230469 C 1158.828125 325.839844 1159.386719 325.5625 1160.003906 325.402344 L 1162.175781 326.5 L 1164.613281 327.59375 C 1164.320312 327.351562 1163.613281 326.863281 1162.539062 326.160156 C 1160.402344 324.679688 1158.378906 323.054688 1156.472656 321.289062 C 1153.003906 318.019531 1149.992188 314.371094 1147.4375 310.347656 C 1144.882812 306.324219 1142.863281 302.050781 1141.382812 297.523438 C 1139.382812 291.316406 1138.570312 284.960938 1138.945312 278.457031 C 1139.277344 271.007812 1141.039062 263.910156 1144.234375 257.171875 C 1145.945312 253.535156 1148.089844 250.167969 1150.660156 247.074219 C 1153.234375 243.980469 1156.152344 241.257812 1159.421875 238.910156 C 1162.726562 236.523438 1166.359375 234.84375 1170.316406 233.871094 C 1174.242188 232.976562 1178.136719 233.105469 1181.992188 234.257812 C 1189.914062 236.574219 1197.421875 242.539062 1203.929688 248.382812 C 1210.210938 253.796875 1215.175781 260.226562 1218.824219 267.667969 C 1220.378906 270.875 1221.445312 274.242188 1222.023438 277.757812 C 1222.601562 281.277344 1222.664062 284.804688 1222.214844 288.34375 Z M 1222.214844 288.34375 " fill-opacity="1" fill-rule="nonzero"/><path fill="#ffffff" d="M 1211.5625 254.738281 C 1207.320312 256.433594 1203.402344 258.6875 1199.8125 261.507812 C 1197.914062 262.910156 1196.160156 264.46875 1194.539062 266.1875 C 1192.921875 267.902344 1191.46875 269.746094 1190.179688 271.71875 C 1188.886719 273.695312 1187.785156 275.765625 1186.863281 277.9375 C 1185.941406 280.105469 1185.222656 282.34375 1184.699219 284.640625 C 1184.316406 286.960938 1184.144531 289.296875 1184.183594 291.652344 C 1184.21875 294.003906 1184.460938 296.332031 1184.914062 298.640625 C 1185.363281 300.949219 1186.015625 303.199219 1186.871094 305.394531 C 1187.722656 307.585938 1188.761719 309.6875 1189.988281 311.695312 C 1192.269531 315.703125 1195.082031 319.296875 1198.421875 322.480469 C 1201.984375 320.160156 1205.234375 317.464844 1208.171875 314.398438 C 1211.335938 311.320312 1213.984375 307.851562 1216.121094 303.988281 C 1218.253906 300.128906 1219.78125 296.039062 1220.703125 291.726562 C 1222.382812 283.226562 1219.945312 274.339844 1217.289062 267.179688 C 1215.6875 262.890625 1213.78125 258.742188 1211.5625 254.738281 Z M 1211.5625 254.738281 " fill-opacity="0.42" fill-rule="nonzero"/><path fill="#ffd00b" d="M 1200.859375 338.601562 C 1200.332031 340.113281 1199.539062 341.472656 1198.480469 342.679688 C 1197.421875 343.882812 1196.175781 344.847656 1194.742188 345.566406 C 1190.601562 347.625 1186.21875 348.792969 1181.601562 349.074219 C 1177.335938 349.511719 1173.070312 349.511719 1168.804688 349.074219 C 1164.808594 348.707031 1161.738281 347.78125 1160.128906 345.640625 C 1159.375 344.691406 1159.027344 343.609375 1159.078125 342.398438 C 1159.160156 341.414062 1159.527344 340.542969 1160.175781 339.792969 C 1160.355469 339.582031 1160.558594 339.394531 1160.785156 339.234375 C 1161.824219 339.683594 1162.890625 340.066406 1163.980469 340.378906 C 1166.375 341.113281 1168.8125 341.628906 1171.300781 341.917969 C 1173.789062 342.207031 1176.28125 342.269531 1178.78125 342.105469 C 1181.28125 341.941406 1183.746094 341.554688 1186.171875 340.9375 C 1188.601562 340.324219 1190.953125 339.496094 1193.230469 338.457031 C 1196.246094 337.15625 1198.957031 335.394531 1201.371094 333.171875 C 1201.675781 335.027344 1201.503906 336.835938 1200.859375 338.601562 Z M 1200.859375 338.601562 " fill-opacity="1" fill-rule="nonzero"/><path fill="#ffd00b" d="M 1197.496094 354.0625 C 1196.914062 355.167969 1196.160156 356.140625 1195.234375 356.976562 C 1194.308594 357.8125 1193.265625 358.464844 1192.109375 358.933594 C 1188.734375 360.277344 1185.230469 360.871094 1181.601562 360.710938 C 1178.175781 360.652344 1174.777344 360.296875 1171.414062 359.640625 C 1168.6875 359.277344 1166.105469 358.464844 1163.664062 357.207031 C 1163.25 356.949219 1162.898438 356.625 1162.613281 356.230469 C 1162.363281 355.914062 1162.199219 355.558594 1162.125 355.160156 C 1162.015625 354.410156 1162.148438 353.703125 1162.515625 353.042969 C 1162.640625 352.828125 1162.785156 352.632812 1162.957031 352.457031 C 1164.394531 353.152344 1165.886719 353.6875 1167.441406 354.0625 C 1172.320312 355.316406 1177.269531 355.699219 1182.285156 355.207031 C 1187.472656 354.832031 1192.273438 353.273438 1196.691406 350.535156 C 1197.246094 350.171875 1197.785156 349.78125 1198.300781 349.363281 C 1198.539062 351.019531 1198.269531 352.585938 1197.496094 354.0625 Z M 1197.496094 354.0625 " fill-opacity="1" fill-rule="nonzero"/><path fill="#ffd00b" d="M 1191.792969 364.925781 C 1191.792969 365.121094 1191.574219 365.363281 1191.476562 365.605469 C 1190.738281 367.171875 1189.804688 368.609375 1188.671875 369.917969 C 1188.0625 370.667969 1187.339844 371.277344 1186.496094 371.75 C 1185.652344 372.21875 1184.753906 372.519531 1183.796875 372.644531 C 1181.921875 372.816406 1180.136719 372.5 1178.433594 371.695312 C 1176.898438 370.917969 1175.546875 369.894531 1174.386719 368.625 C 1173.484375 367.691406 1172.671875 366.683594 1171.949219 365.605469 C 1171.949219 365.605469 1171.804688 365.363281 1171.730469 365.265625 C 1174.902344 366.28125 1178.152344 366.808594 1181.480469 366.847656 C 1185.058594 366.957031 1188.496094 366.316406 1191.792969 364.925781 Z M 1191.792969 364.925781 " fill-opacity="1" fill-rule="nonzero"/><path fill="#000000" d="M 1231.695312 281.890625 C 1231.589844 286.261719 1230.777344 290.496094 1229.257812 294.601562 C 1227.929688 297.992188 1226.21875 301.183594 1224.128906 304.171875 C 1222.042969 307.160156 1219.628906 309.863281 1216.898438 312.277344 C 1212.992188 315.777344 1208.679688 318.667969 1203.957031 320.949219 C 1203.710938 321.070312 1203.492188 321.214844 1203.25 321.3125 C 1199.726562 323.011719 1196.097656 324.421875 1192.351562 325.550781 C 1189.378906 326.476562 1187.0625 327.058594 1185.527344 327.425781 L 1183.285156 327.910156 L 1185.722656 326.792969 C 1187.378906 326.035156 1189.769531 324.890625 1192.816406 323.285156 C 1196.460938 321.351562 1199.953125 319.175781 1203.296875 316.757812 C 1207.707031 313.585938 1211.542969 309.828125 1214.800781 305.484375 C 1216.730469 302.996094 1218.324219 300.308594 1219.585938 297.421875 C 1220.847656 294.539062 1221.742188 291.542969 1222.261719 288.4375 C 1222.707031 284.902344 1222.640625 281.375 1222.0625 277.855469 C 1221.480469 274.335938 1220.410156 270.972656 1218.847656 267.765625 C 1215.199219 260.324219 1210.234375 253.894531 1203.957031 248.480469 C 1197.347656 242.636719 1189.84375 236.667969 1182.015625 234.355469 C 1178.160156 233.203125 1174.265625 233.074219 1170.339844 233.96875 C 1166.378906 234.910156 1162.742188 236.554688 1159.421875 238.910156 C 1156.152344 241.257812 1153.234375 243.980469 1150.660156 247.074219 C 1148.089844 250.167969 1145.945312 253.535156 1144.234375 257.171875 C 1141.011719 263.90625 1139.226562 271 1138.871094 278.457031 C 1138.496094 284.960938 1139.308594 291.316406 1141.308594 297.523438 C 1142.792969 302.050781 1144.808594 306.324219 1147.363281 310.347656 C 1149.917969 314.371094 1152.929688 318.019531 1156.398438 321.289062 C 1158.304688 323.054688 1160.328125 324.679688 1162.46875 326.160156 C 1163.539062 326.863281 1164.246094 327.351562 1164.539062 327.59375 L 1162.101562 326.5 L 1159.933594 325.402344 L 1159.421875 325.355469 C 1157.832031 324.492188 1156.292969 323.542969 1154.8125 322.507812 C 1150.453125 319.449219 1146.597656 315.847656 1143.246094 311.710938 C 1139.894531 307.574219 1137.175781 303.054688 1135.09375 298.15625 C 1132.167969 291.191406 1130.664062 283.9375 1130.585938 276.386719 C 1130.554688 272.058594 1130.976562 267.773438 1131.851562 263.535156 C 1132.726562 259.296875 1134.035156 255.195312 1135.777344 251.230469 C 1137.699219 246.730469 1140.1875 242.566406 1143.234375 238.734375 C 1146.285156 234.90625 1149.785156 231.546875 1153.742188 228.660156 C 1158.167969 225.46875 1163.042969 223.269531 1168.367188 222.058594 C 1171.1875 221.417969 1174.042969 221.148438 1176.9375 221.246094 C 1179.828125 221.34375 1182.660156 221.8125 1185.429688 222.644531 C 1191.40625 224.535156 1196.871094 227.390625 1201.835938 231.214844 C 1206.230469 234.511719 1210.351562 238.125 1214.191406 242.050781 C 1217.871094 245.667969 1221.050781 249.679688 1223.734375 254.085938 C 1226.414062 258.488281 1228.515625 263.15625 1230.039062 268.082031 C 1231.28125 272.601562 1231.835938 277.203125 1231.695312 281.890625 Z M 1231.695312 281.890625 " fill-opacity="1" fill-rule="nonzero"/><path fill="#000000" d="M 1202.980469 331.371094 L 1202.25 332.292969 C 1201.996094 332.609375 1201.710938 332.894531 1201.394531 333.148438 C 1198.984375 335.371094 1196.269531 337.132812 1193.253906 338.429688 C 1190.976562 339.472656 1188.625 340.300781 1186.195312 340.914062 C 1183.769531 341.527344 1181.304688 341.917969 1178.804688 342.082031 C 1176.308594 342.246094 1173.8125 342.183594 1171.324219 341.894531 C 1168.839844 341.601562 1166.398438 341.089844 1164.003906 340.355469 C 1162.914062 340.042969 1161.851562 339.660156 1160.808594 339.210938 L 1160.003906 338.820312 C 1159.277344 338.476562 1158.589844 338.070312 1157.933594 337.601562 C 1157.019531 337.046875 1156.234375 336.351562 1155.570312 335.511719 C 1154.910156 334.675781 1154.414062 333.75 1154.082031 332.734375 C 1153.847656 331.765625 1153.847656 330.800781 1154.082031 329.835938 C 1154.335938 328.839844 1154.816406 327.964844 1155.523438 327.214844 C 1156.230469 326.464844 1157.074219 325.933594 1158.054688 325.621094 C 1158.988281 325.359375 1159.925781 325.359375 1160.859375 325.621094 C 1160.582031 325.609375 1160.304688 325.609375 1160.03125 325.621094 C 1159.414062 325.78125 1158.851562 326.058594 1158.347656 326.449219 C 1157.539062 327.085938 1156.984375 327.898438 1156.691406 328.886719 C 1156.5 329.378906 1156.429688 329.890625 1156.484375 330.417969 C 1156.535156 330.945312 1156.699219 331.433594 1156.984375 331.882812 C 1157.835938 333.035156 1158.941406 333.847656 1160.296875 334.316406 C 1162.015625 334.925781 1163.777344 335.339844 1165.589844 335.558594 C 1169.816406 336.207031 1174.066406 336.394531 1178.335938 336.117188 C 1183.078125 335.792969 1187.699219 334.875 1192.207031 333.367188 C 1195.527344 332.496094 1198.515625 330.980469 1201.175781 328.8125 C 1201.941406 328.109375 1202.558594 327.292969 1203.027344 326.367188 C 1203.496094 325.441406 1203.789062 324.460938 1203.90625 323.429688 C 1203.972656 322.863281 1203.972656 322.292969 1203.90625 321.726562 C 1203.859375 321.511719 1203.804688 321.300781 1203.734375 321.09375 L 1203.613281 320.484375 C 1203.613281 320.484375 1203.761719 320.800781 1203.882812 321.070312 C 1203.980469 321.304688 1204.09375 321.53125 1204.222656 321.75 C 1204.585938 322.367188 1204.835938 323.023438 1204.980469 323.722656 C 1205.203125 325.082031 1205.140625 326.425781 1204.789062 327.757812 C 1204.441406 329.089844 1203.839844 330.292969 1202.980469 331.371094 Z M 1202.980469 331.371094 " fill-opacity="1" fill-rule="nonzero"/><path fill="#000000" d="M 1203.710938 340.160156 C 1203.414062 342.152344 1202.707031 343.984375 1201.589844 345.664062 C 1200.839844 346.78125 1199.960938 347.785156 1198.957031 348.683594 L 1198.300781 349.292969 C 1197.785156 349.707031 1197.246094 350.097656 1196.691406 350.460938 C 1192.273438 353.199219 1187.472656 354.757812 1182.285156 355.136719 C 1177.269531 355.625 1172.320312 355.242188 1167.441406 353.992188 C 1165.886719 353.617188 1164.394531 353.078125 1162.957031 352.382812 L 1162.25 352.140625 C 1161.882812 351.945312 1161.542969 351.726562 1161.199219 351.507812 C 1159.375 350.304688 1158.074219 348.679688 1157.300781 346.636719 C 1156.96875 345.828125 1156.804688 344.988281 1156.804688 344.117188 C 1156.804688 343.246094 1156.96875 342.40625 1157.300781 341.597656 C 1157.824219 340.445312 1158.636719 339.5625 1159.738281 338.941406 C 1159.828125 338.921875 1159.917969 338.921875 1160.003906 338.941406 C 1160.773438 338.53125 1161.585938 338.410156 1162.445312 338.578125 C 1161.828125 338.710938 1161.269531 338.960938 1160.761719 339.332031 C 1160.535156 339.492188 1160.332031 339.679688 1160.152344 339.890625 C 1159.53125 340.617188 1159.175781 341.453125 1159.078125 342.398438 C 1159.054688 343.609375 1159.425781 344.683594 1160.199219 345.613281 C 1161.808594 347.757812 1164.882812 348.683594 1168.878906 349.046875 C 1173.144531 349.488281 1177.410156 349.488281 1181.675781 349.046875 C 1186.292969 348.769531 1190.671875 347.601562 1194.816406 345.542969 C 1196.230469 344.816406 1197.464844 343.855469 1198.507812 342.65625 C 1199.554688 341.457031 1200.335938 340.105469 1200.859375 338.601562 C 1201.492188 336.824219 1201.648438 335.007812 1201.324219 333.148438 C 1201.300781 332.898438 1201.253906 332.65625 1201.175781 332.417969 C 1201.019531 331.871094 1200.816406 331.34375 1200.566406 330.832031 L 1200.371094 330.226562 C 1200.539062 330.382812 1200.71875 330.53125 1200.910156 330.664062 C 1201.417969 331.128906 1201.863281 331.648438 1202.25 332.222656 C 1202.976562 333.40625 1203.46875 334.6875 1203.722656 336.054688 C 1203.972656 337.421875 1203.96875 338.792969 1203.710938 340.160156 Z M 1203.710938 340.160156 " fill-opacity="1" fill-rule="nonzero"/><path fill="#000000" d="M 1200.152344 355.71875 C 1199.789062 357.347656 1199.097656 358.828125 1198.082031 360.152344 C 1196.914062 361.699219 1195.480469 362.949219 1193.789062 363.902344 C 1193.175781 364.257812 1192.542969 364.574219 1191.890625 364.851562 C 1188.609375 366.238281 1185.1875 366.878906 1181.628906 366.773438 C 1178.296875 366.734375 1175.046875 366.207031 1171.875 365.191406 L 1171.339844 364.996094 C 1170.777344 364.832031 1170.226562 364.636719 1169.683594 364.414062 C 1168.050781 363.78125 1166.484375 363.019531 1164.976562 362.125 C 1163.53125 361.28125 1162.304688 360.195312 1161.296875 358.863281 C 1160.851562 358.253906 1160.546875 357.578125 1160.382812 356.839844 C 1160.222656 356.101562 1160.21875 355.363281 1160.371094 354.625 C 1160.644531 353.605469 1161.214844 352.796875 1162.078125 352.1875 L 1162.394531 352.019531 C 1162.96875 351.640625 1163.59375 351.511719 1164.273438 351.628906 C 1163.820312 351.773438 1163.429688 352.015625 1163.101562 352.359375 C 1162.933594 352.535156 1162.785156 352.730469 1162.664062 352.945312 C 1162.292969 353.605469 1162.164062 354.3125 1162.273438 355.0625 C 1162.347656 355.460938 1162.507812 355.816406 1162.761719 356.132812 C 1163.046875 356.527344 1163.394531 356.851562 1163.808594 357.109375 C 1166.25 358.367188 1168.835938 359.179688 1171.558594 359.542969 C 1174.925781 360.199219 1178.320312 360.554688 1181.75 360.613281 C 1185.378906 360.773438 1188.878906 360.179688 1192.253906 358.835938 C 1193.414062 358.371094 1194.457031 357.71875 1195.382812 356.878906 C 1196.308594 356.042969 1197.0625 355.070312 1197.640625 353.96875 C 1198.453125 352.433594 1198.722656 350.808594 1198.445312 349.097656 C 1198.363281 348.632812 1198.242188 348.175781 1198.082031 347.734375 C 1198.011719 347.59375 1197.964844 347.449219 1197.933594 347.292969 L 1198.347656 347.636719 C 1198.621094 347.910156 1198.875 348.203125 1199.105469 348.511719 C 1199.105469 348.660156 1199.324219 348.804688 1199.421875 348.976562 C 1200.003906 350 1200.359375 351.097656 1200.488281 352.273438 C 1200.613281 353.445312 1200.503906 354.59375 1200.152344 355.71875 Z M 1200.152344 355.71875 " fill-opacity="1" fill-rule="nonzero"/><g clip-path="url(#f05ad33ec3)"><path fill="#000000" d="M 1193.691406 363.976562 C 1193.699219 364.902344 1193.652344 365.828125 1193.546875 366.75 C 1193.316406 368.898438 1192.625 370.886719 1191.476562 372.71875 C 1190.730469 373.867188 1189.796875 374.832031 1188.671875 375.613281 C 1187.328125 376.519531 1185.847656 377.054688 1184.234375 377.222656 C 1182.773438 377.359375 1181.335938 377.214844 1179.925781 376.796875 C 1178.519531 376.375 1177.242188 375.703125 1176.09375 374.785156 C 1174.382812 373.414062 1173.125 371.710938 1172.316406 369.671875 C 1171.8125 368.425781 1171.480469 367.136719 1171.316406 365.800781 C 1171.316406 365.535156 1171.316406 365.289062 1171.316406 365.09375 C 1171.316406 364.902344 1171.316406 364.390625 1171.316406 364.390625 L 1171.875 365.289062 C 1171.875 365.289062 1172 365.507812 1172.097656 365.632812 C 1172.820312 366.710938 1173.632812 367.714844 1174.535156 368.652344 C 1175.621094 369.859375 1176.882812 370.847656 1178.3125 371.621094 C 1180.011719 372.425781 1181.800781 372.742188 1183.675781 372.570312 C 1184.648438 372.46875 1185.566406 372.191406 1186.433594 371.730469 C 1187.296875 371.269531 1188.042969 370.667969 1188.671875 369.917969 C 1189.796875 368.605469 1190.722656 367.171875 1191.449219 365.605469 C 1191.449219 365.363281 1191.671875 365.121094 1191.765625 364.925781 L 1192.9375 362.488281 L 1193.5 361.394531 C 1193.5 361.394531 1193.5 361.90625 1193.5 362.804688 C 1193.667969 363.097656 1193.691406 363.511719 1193.691406 363.976562 Z M 1193.691406 363.976562 " fill-opacity="1" fill-rule="nonzero"/></g><path fill="#000000" d="M 1166.050781 325.816406 C 1166.050781 325.816406 1166.464844 319.558594 1166.660156 309.113281 L 1166.660156 295.621094 C 1166.554688 294 1166.554688 292.375 1166.660156 290.753906 C 1166.667969 290.230469 1166.800781 289.738281 1167.046875 289.277344 C 1167.296875 288.816406 1167.640625 288.441406 1168.074219 288.148438 C 1168.414062 287.953125 1168.5625 288 1168.636719 288.027344 C 1168.882812 288.171875 1169.085938 288.367188 1169.246094 288.609375 C 1169.582031 289.144531 1169.828125 289.722656 1169.976562 290.339844 C 1170.195312 291.3125 1170.4375 292.285156 1170.65625 293.261719 C 1171 294.644531 1171.59375 295.910156 1172.4375 297.058594 C 1172.757812 297.480469 1173.113281 297.875 1173.5 298.238281 C 1173.886719 298.601562 1174.300781 298.929688 1174.738281 299.226562 C 1175.179688 299.523438 1175.640625 299.78125 1176.125 300 C 1176.605469 300.222656 1177.101562 300.402344 1177.613281 300.542969 C 1178.125 300.683594 1178.644531 300.78125 1179.171875 300.835938 C 1179.703125 300.890625 1180.230469 300.902344 1180.761719 300.871094 C 1181.289062 300.839844 1181.8125 300.765625 1182.332031 300.648438 C 1182.847656 300.53125 1183.355469 300.375 1183.84375 300.175781 C 1185.054688 299.652344 1186.113281 298.917969 1187.019531 297.96875 C 1187.929688 297.015625 1188.617188 295.925781 1189.085938 294.699219 C 1189.519531 293.011719 1189.859375 291.308594 1190.109375 289.582031 C 1190.09375 289.484375 1190.121094 289.398438 1190.183594 289.320312 C 1190.246094 289.242188 1190.328125 289.199219 1190.425781 289.195312 C 1190.515625 289.148438 1190.605469 289.148438 1190.695312 289.195312 C 1190.699219 289.265625 1190.699219 289.339844 1190.695312 289.414062 C 1190.9375 290.339844 1191.0625 291.847656 1191.253906 293.089844 L 1192.304688 300.394531 C 1193.011719 304.925781 1193.667969 308.871094 1194.230469 312.109375 C 1195.375 318.609375 1196.15625 322.3125 1196.15625 322.3125 C 1196.15625 322.3125 1196.324219 318.976562 1196.351562 312.570312 C 1196.351562 309.40625 1196.351562 305.460938 1196.203125 300.808594 C 1196.203125 298.375 1196.058594 295.9375 1195.960938 293.285156 L 1195.960938 291.214844 C 1195.996094 290.582031 1196.003906 289.949219 1195.984375 289.316406 L 1195.984375 288.632812 C 1195.984375 288.34375 1195.839844 287.976562 1195.765625 287.683594 C 1195.582031 287.039062 1195.3125 286.429688 1194.960938 285.859375 C 1194.285156 284.648438 1193.285156 283.835938 1191.960938 283.421875 C 1191.605469 283.351562 1191.246094 283.3125 1190.882812 283.304688 C 1190.519531 283.296875 1190.160156 283.324219 1189.800781 283.382812 C 1189.441406 283.441406 1189.089844 283.53125 1188.75 283.652344 C 1188.40625 283.773438 1188.078125 283.925781 1187.761719 284.105469 C 1187.449219 284.289062 1187.152344 284.496094 1186.875 284.730469 C 1186.597656 284.964844 1186.34375 285.222656 1186.113281 285.503906 C 1185.882812 285.785156 1185.679688 286.082031 1185.503906 286.398438 C 1185.328125 286.71875 1185.179688 287.046875 1185.0625 287.390625 C 1184.667969 288.40625 1184.394531 289.457031 1184.234375 290.535156 C 1184.144531 291.210938 1183.996094 291.875 1183.796875 292.53125 C 1183.386719 293.503906 1182.695312 294.203125 1181.726562 294.625 C 1181.25 294.828125 1180.753906 294.921875 1180.234375 294.898438 C 1179.71875 294.878906 1179.230469 294.746094 1178.773438 294.503906 C 1178.277344 294.265625 1177.855469 293.933594 1177.507812 293.503906 C 1177.132812 293.042969 1176.871094 292.523438 1176.726562 291.945312 C 1176.484375 291.214844 1176.289062 290.3125 1175.996094 289.265625 C 1175.691406 288.042969 1175.207031 286.898438 1174.535156 285.832031 C 1173.71875 284.5 1172.597656 283.519531 1171.171875 282.886719 C 1170.390625 282.554688 1169.578125 282.386719 1168.730469 282.386719 C 1167.886719 282.386719 1167.074219 282.554688 1166.292969 282.886719 C 1164.976562 283.507812 1163.929688 284.433594 1163.148438 285.664062 C 1162.4375 286.800781 1162.007812 288.03125 1161.859375 289.363281 C 1161.664062 291.261719 1161.714844 293.152344 1162.003906 295.039062 C 1162.199219 296.695312 1162.371094 298.300781 1162.539062 299.910156 C 1162.90625 303 1163.273438 305.921875 1163.589844 308.578125 C 1164.929688 319.144531 1166.050781 325.816406 1166.050781 325.816406 Z M 1166.050781 325.816406 " fill-opacity="1" fill-rule="nonzero"/><path fill="#000000" d="M 1121.46875 226.734375 C 1121.46875 226.734375 1119.347656 224.542969 1115.714844 221.0625 C 1112.082031 217.578125 1107.0625 212.832031 1101.089844 207.523438 C 1095.117188 202.214844 1090.046875 197.78125 1086.246094 194.398438 C 1082.441406 191.011719 1080.027344 189.160156 1080.027344 189.160156 C 1080.027344 189.160156 1080.273438 189.769531 1080.808594 190.914062 C 1081.605469 192.582031 1082.480469 194.207031 1083.441406 195.785156 C 1087.1875 201.835938 1091.703125 207.242188 1096.996094 212.003906 C 1102.011719 216.515625 1107.539062 220.292969 1113.570312 223.324219 C 1116.121094 224.648438 1118.753906 225.785156 1121.46875 226.734375 Z M 1121.46875 226.734375 " fill-opacity="1" fill-rule="nonzero"/><g clip-path="url(#e89ed162df)"><path fill="#000000" d="M 1193.15625 152.464844 C 1191.277344 160.476562 1190.464844 168.59375 1190.71875 176.816406 C 1190.917969 185.03125 1192.167969 193.082031 1194.472656 200.972656 C 1196.542969 192.980469 1197.355469 184.863281 1196.910156 176.621094 C 1196.621094 168.421875 1195.371094 160.367188 1193.15625 152.464844 Z M 1193.15625 152.464844 " fill-opacity="1" fill-rule="nonzero"/></g><path fill="#000000" d="M 1265.992188 243.609375 C 1265.992188 243.609375 1268.257812 242.707031 1271.792969 241.003906 C 1275.328125 239.300781 1280.15625 236.863281 1285.417969 233.699219 C 1290.683594 230.535156 1295.167969 227.515625 1298.3125 225.226562 C 1301.457031 222.9375 1303.382812 221.351562 1303.382812 221.351562 C 1301.417969 221.457031 1299.472656 221.742188 1297.558594 222.207031 C 1292.152344 223.507812 1287.0625 225.59375 1282.300781 228.464844 C 1277.753906 231.1875 1273.691406 234.5 1270.113281 238.398438 C 1268.613281 240.039062 1267.242188 241.773438 1265.992188 243.609375 Z M 1265.992188 243.609375 " fill-opacity="1" fill-rule="nonzero"/><g clip-path="url(#7ae33375d9)"><path fill="#000000" d="M 1260.117188 300.515625 C 1268.523438 302.777344 1277.078125 303.980469 1285.785156 304.121094 C 1294.480469 304.367188 1303.078125 303.554688 1311.574219 301.6875 C 1303.207031 299.21875 1294.65625 298.003906 1285.929688 298.035156 C 1277.230469 297.878906 1268.628906 298.707031 1260.117188 300.515625 Z M 1260.117188 300.515625 " fill-opacity="1" fill-rule="nonzero"/></g><path fill="#000000" d="M 1237.105469 339.574219 C 1237.765625 341.917969 1238.667969 344.160156 1239.808594 346.308594 C 1240.949219 348.457031 1242.304688 350.460938 1243.875 352.320312 C 1245.445312 354.179688 1247.195312 355.851562 1249.125 357.335938 C 1251.050781 358.820312 1253.117188 360.082031 1255.316406 361.125 C 1254.140625 356.304688 1251.878906 352.0625 1248.539062 348.390625 C 1245.316406 344.691406 1241.503906 341.753906 1237.105469 339.574219 Z M 1237.105469 339.574219 " fill-opacity="1" fill-rule="nonzero"/><path fill="#000000" d="M 1075.25 365.582031 C 1081.882812 362.578125 1087.933594 358.683594 1093.410156 353.894531 C 1098.933594 349.132812 1103.652344 343.675781 1107.574219 337.53125 C 1100.839844 340.363281 1094.789062 344.25 1089.414062 349.195312 C 1083.949219 354.015625 1079.226562 359.476562 1075.25 365.582031 Z M 1075.25 365.582031 " fill-opacity="1" fill-rule="nonzero"/><g clip-path="url(#9ada6c1ccc)"><path fill="#000000" d="M 1061.917969 283.570312 C 1064.175781 284.339844 1066.492188 284.859375 1068.863281 285.128906 C 1071.238281 285.394531 1073.609375 285.402344 1075.984375 285.152344 C 1078.359375 284.902344 1080.679688 284.398438 1082.945312 283.644531 C 1085.207031 282.886719 1087.363281 281.898438 1089.414062 280.671875 C 1084.863281 278.933594 1080.171875 278.40625 1075.347656 279.089844 C 1070.566406 279.667969 1066.089844 281.164062 1061.917969 283.570312 Z M 1061.917969 283.570312 " fill-opacity="1" fill-rule="nonzero"/></g><path fill="#ffffff" d="M 1164.636719 241.589844 C 1164.636719 241.589844 1163.589844 242.125 1161.738281 243.316406 C 1159.113281 245.085938 1156.714844 247.125 1154.546875 249.429688 C 1151.183594 252.984375 1148.453125 256.96875 1146.355469 261.386719 C 1145.003906 264.195312 1143.941406 267.105469 1143.167969 270.125 C 1142.390625 273.144531 1141.917969 276.207031 1141.75 279.316406 C 1141.582031 282.429688 1141.71875 285.527344 1142.160156 288.609375 C 1142.601562 291.695312 1143.34375 294.707031 1144.382812 297.644531 C 1145.976562 302.261719 1148.246094 306.523438 1151.183594 310.429688 C 1153.082031 312.964844 1155.242188 315.253906 1157.664062 317.292969 C 1159.347656 318.683594 1160.347656 319.339844 1160.347656 319.339844 C 1160.347656 319.339844 1160.054688 318.34375 1159.445312 316.539062 C 1158.835938 314.738281 1158.007812 312.058594 1157.007812 308.675781 C 1154.46875 299.285156 1153.40625 289.730469 1153.8125 280.015625 C 1154.308594 270.8125 1156.136719 261.882812 1159.300781 253.226562 C 1160.34375 250.363281 1161.535156 247.5625 1162.882812 244.828125 Z M 1164.636719 241.589844 " fill-opacity="1" fill-rule="nonzero"/><path fill="#ffffff" d="M 1159.566406 329.714844 C 1159.917969 330.714844 1160.453125 331.605469 1161.175781 332.382812 C 1161.894531 333.160156 1162.738281 333.765625 1163.710938 334.195312 C 1164.757812 334.390625 1165.796875 334.375 1166.835938 334.140625 C 1167.875 333.90625 1168.824219 333.480469 1169.683594 332.855469 C 1169.390625 331.820312 1168.878906 330.910156 1168.148438 330.121094 C 1167.417969 329.332031 1166.546875 328.75 1165.539062 328.375 C 1164.496094 328.203125 1163.457031 328.234375 1162.421875 328.46875 C 1161.390625 328.699219 1160.4375 329.113281 1159.566406 329.714844 Z M 1159.566406 329.714844 " fill-opacity="1" fill-rule="nonzero"/><path fill="#ffffff" d="M 1163.664062 343.933594 C 1163.664062 343.933594 1164.882812 347.417969 1167.609375 348.121094 C 1168.605469 348.238281 1169.582031 348.144531 1170.539062 347.84375 C 1171.492188 347.542969 1172.347656 347.058594 1173.09375 346.394531 C 1172.820312 345.421875 1172.335938 344.570312 1171.640625 343.832031 C 1170.949219 343.097656 1170.125 342.5625 1169.171875 342.230469 C 1168.175781 342.125 1167.199219 342.222656 1166.242188 342.515625 C 1165.285156 342.8125 1164.425781 343.285156 1163.664062 343.933594 Z M 1163.664062 343.933594 " fill-opacity="1" fill-rule="nonzero"/><path fill="#ffffff" d="M 1168.246094 239.542969 C 1168.246094 239.542969 1170.804688 241.976562 1172.902344 241.125 C 1174.996094 240.273438 1175.535156 236.9375 1175.535156 236.9375 C 1175.535156 236.9375 1173.09375 234.503906 1170.851562 235.378906 C 1168.878906 236.0625 1168.246094 239.542969 1168.246094 239.542969 Z M 1168.246094 239.542969 " fill-opacity="1" fill-rule="nonzero"/><g fill="#000000" fill-opacity="1"><g transform="translate(234.893594, 343.114836)"><g><path d="M 20.0625 0 L 7.90625 0 L 7.90625 -66.40625 L 20.0625 -66.40625 Z M 20.0625 0 "/></g></g></g><g fill="#000000" fill-opacity="1"><g transform="translate(262.822189, 343.114836)"><g><path d="M 18.75 0 L 6.9375 0 L 6.9375 -50.203125 L 18.171875 -50.203125 L 18.171875 -42.390625 C 19.140625 -44.210938 20.46875 -45.820312 22.15625 -47.21875 C 23.851562 -48.613281 25.828125 -49.707031 28.078125 -50.5 C 30.328125 -51.300781 32.734375 -51.703125 35.296875 -51.703125 C 42.035156 -51.703125 47.082031 -49.5625 50.4375 -45.28125 C 53.789062 -41.007812 55.46875 -34.929688 55.46875 -27.046875 L 55.46875 0 L 43.65625 0 L 43.65625 -26.8125 C 43.65625 -31.789062 42.613281 -35.367188 40.53125 -37.546875 C 38.445312 -39.734375 35.613281 -40.828125 32.03125 -40.828125 C 29.71875 -40.828125 27.550781 -40.238281 25.53125 -39.0625 C 23.519531 -37.894531 21.882812 -36.1875 20.625 -33.9375 C 19.375 -31.6875 18.75 -28.921875 18.75 -25.640625 Z M 18.75 0 "/></g></g></g><g fill="#000000" fill-opacity="1"><g transform="translate(324.831482, 343.114836)"><g><path d="M 18.75 0 L 6.9375 0 L 6.9375 -50.203125 L 18.171875 -50.203125 L 18.171875 -42.390625 C 19.140625 -44.210938 20.46875 -45.820312 22.15625 -47.21875 C 23.851562 -48.613281 25.828125 -49.707031 28.078125 -50.5 C 30.328125 -51.300781 32.734375 -51.703125 35.296875 -51.703125 C 42.035156 -51.703125 47.082031 -49.5625 50.4375 -45.28125 C 53.789062 -41.007812 55.46875 -34.929688 55.46875 -27.046875 L 55.46875 0 L 43.65625 0 L 43.65625 -26.8125 C 43.65625 -31.789062 42.613281 -35.367188 40.53125 -37.546875 C 38.445312 -39.734375 35.613281 -40.828125 32.03125 -40.828125 C 29.71875 -40.828125 27.550781 -40.238281 25.53125 -39.0625 C 23.519531 -37.894531 21.882812 -36.1875 20.625 -33.9375 C 19.375 -31.6875 18.75 -28.921875 18.75 -25.640625 Z M 18.75 0 "/></g></g></g><g fill="#000000" fill-opacity="1"><g transform="translate(386.840776, 343.114836)"><g><path d="M 29.734375 1.515625 C 25.929688 1.515625 22.414062 0.832031 19.1875 -0.53125 C 15.96875 -1.90625 13.175781 -3.8125 10.8125 -6.25 C 8.457031 -8.6875 6.628906 -11.515625 5.328125 -14.734375 C 4.023438 -17.960938 3.375 -21.414062 3.375 -25.09375 C 3.375 -28.769531 4.023438 -32.210938 5.328125 -35.421875 C 6.628906 -38.628906 8.457031 -41.453125 10.8125 -43.890625 C 13.175781 -46.335938 15.96875 -48.25 19.1875 -49.625 C 22.414062 -51.007812 25.945312 -51.703125 29.78125 -51.703125 C 33.65625 -51.703125 37.203125 -51.007812 40.421875 -49.625 C 43.648438 -48.25 46.453125 -46.335938 48.828125 -43.890625 C 51.203125 -41.453125 53.039062 -38.628906 54.34375 -35.421875 C 55.644531 -32.210938 56.296875 -28.769531 56.296875 -25.09375 C 56.296875 -21.382812 55.644531 -17.925781 54.34375 -14.71875 C 53.039062 -11.507812 51.203125 -8.6875 48.828125 -6.25 C 46.453125 -3.8125 43.644531 -1.90625 40.40625 -0.53125 C 37.164062 0.832031 33.609375 1.515625 29.734375 1.515625 Z M 29.828125 -9.46875 C 32.660156 -9.46875 35.179688 -10.144531 37.390625 -11.5 C 39.609375 -12.851562 41.359375 -14.703125 42.640625 -17.046875 C 43.929688 -19.390625 44.578125 -22.070312 44.578125 -25.09375 C 44.578125 -28.125 43.929688 -30.816406 42.640625 -33.171875 C 41.359375 -35.535156 39.609375 -37.390625 37.390625 -38.734375 C 35.179688 -40.085938 32.660156 -40.765625 29.828125 -40.765625 C 27.035156 -40.765625 24.523438 -40.085938 22.296875 -38.734375 C 20.066406 -37.390625 18.304688 -35.535156 17.015625 -33.171875 C 15.734375 -30.816406 15.09375 -28.125 15.09375 -25.09375 C 15.09375 -22.070312 15.734375 -19.390625 17.015625 -17.046875 C 18.304688 -14.703125 20.066406 -12.851562 22.296875 -11.5 C 24.523438 -10.144531 27.035156 -9.46875 29.828125 -9.46875 Z M 29.828125 -9.46875 "/></g></g></g><g fill="#000000" fill-opacity="1"><g transform="translate(444.748655, 343.114836)"><g><path d="M 31.5 0 L 20.515625 0 L 0.484375 -50.203125 L 13.03125 -50.203125 L 24.703125 -19.875 L 26.03125 -14.59375 L 27.296875 -19.828125 L 38.96875 -50.203125 L 51.609375 -50.203125 Z M 31.5 0 "/></g></g></g><g fill="#000000" fill-opacity="1"><g transform="translate(495.039622, 343.114836)"><g><path d="M 27 1.515625 C 23.613281 1.515625 20.476562 0.832031 17.59375 -0.53125 C 14.71875 -1.90625 12.210938 -3.8125 10.078125 -6.25 C 7.953125 -8.6875 6.300781 -11.515625 5.125 -14.734375 C 3.957031 -17.960938 3.375 -21.414062 3.375 -25.09375 C 3.375 -28.769531 3.96875 -32.210938 5.15625 -35.421875 C 6.34375 -38.628906 8 -41.453125 10.125 -43.890625 C 12.257812 -46.335938 14.757812 -48.25 17.625 -49.625 C 20.488281 -51.007812 23.597656 -51.703125 26.953125 -51.703125 C 31.054688 -51.703125 34.703125 -50.816406 37.890625 -49.046875 C 41.078125 -47.273438 43.46875 -44.828125 45.0625 -41.703125 L 45.0625 -50.203125 L 56.296875 -50.203125 L 56.296875 0 L 45.0625 0 L 45.0625 -8.453125 C 43.4375 -5.328125 41.035156 -2.882812 37.859375 -1.125 C 34.691406 0.632812 31.070312 1.515625 27 1.515625 Z M 29.828125 -9.421875 C 31.878906 -9.421875 33.800781 -9.816406 35.59375 -10.609375 C 37.382812 -11.410156 38.953125 -12.519531 40.296875 -13.9375 C 41.648438 -15.351562 42.703125 -17.015625 43.453125 -18.921875 C 44.203125 -20.828125 44.578125 -22.882812 44.578125 -25.09375 C 44.578125 -27.28125 44.191406 -29.320312 43.421875 -31.21875 C 42.660156 -33.125 41.613281 -34.789062 40.28125 -36.21875 C 38.945312 -37.65625 37.382812 -38.769531 35.59375 -39.5625 C 33.800781 -40.363281 31.878906 -40.765625 29.828125 -40.765625 C 27.128906 -40.765625 24.664062 -40.113281 22.4375 -38.8125 C 20.207031 -37.507812 18.425781 -35.6875 17.09375 -33.34375 C 15.757812 -31 15.09375 -28.25 15.09375 -25.09375 C 15.09375 -21.84375 15.765625 -19.046875 17.109375 -16.703125 C 18.460938 -14.359375 20.257812 -12.554688 22.5 -11.296875 C 24.75 -10.046875 27.191406 -9.421875 29.828125 -9.421875 Z M 29.828125 -9.421875 "/></g></g></g><g fill="#000000" fill-opacity="1"><g transform="translate(558.269577, 343.114836)"><g><path d="M 29.296875 1.515625 C 25.554688 1.515625 22.101562 0.820312 18.9375 -0.5625 C 15.78125 -1.945312 13.039062 -3.859375 10.71875 -6.296875 C 8.394531 -8.742188 6.585938 -11.578125 5.296875 -14.796875 C 4.015625 -18.015625 3.375 -21.445312 3.375 -25.09375 C 3.375 -28.738281 4.015625 -32.164062 5.296875 -35.375 C 6.585938 -38.582031 8.394531 -41.414062 10.71875 -43.875 C 13.039062 -46.332031 15.78125 -48.25 18.9375 -49.625 C 22.101562 -51.007812 25.554688 -51.703125 29.296875 -51.703125 C 33.628906 -51.703125 37.492188 -50.863281 40.890625 -49.1875 C 44.296875 -47.519531 47.144531 -45.234375 49.4375 -42.328125 C 51.726562 -39.429688 53.347656 -36.144531 54.296875 -32.46875 L 42.234375 -32.46875 C 41.128906 -35.269531 39.421875 -37.34375 37.109375 -38.6875 C 34.796875 -40.039062 32.207031 -40.71875 29.34375 -40.71875 C 27.519531 -40.71875 25.757812 -40.367188 24.0625 -39.671875 C 22.375 -38.972656 20.851562 -37.957031 19.5 -36.625 C 18.15625 -35.289062 17.082031 -33.65625 16.28125 -31.71875 C 15.488281 -29.78125 15.09375 -27.570312 15.09375 -25.09375 C 15.09375 -22.625 15.488281 -20.421875 16.28125 -18.484375 C 17.082031 -16.546875 18.15625 -14.898438 19.5 -13.546875 C 20.851562 -12.203125 22.382812 -11.175781 24.09375 -10.46875 C 25.800781 -9.769531 27.550781 -9.421875 29.34375 -9.421875 C 32.207031 -9.421875 34.796875 -10.128906 37.109375 -11.546875 C 39.421875 -12.960938 41.128906 -15.234375 42.234375 -18.359375 L 54.25 -18.359375 C 53.40625 -14.484375 51.828125 -11.046875 49.515625 -8.046875 C 47.203125 -5.054688 44.328125 -2.710938 40.890625 -1.015625 C 37.460938 0.671875 33.597656 1.515625 29.296875 1.515625 Z M 29.296875 1.515625 "/></g></g></g><g fill="#000000" fill-opacity="1"><g transform="translate(615.152134, 343.114836)"><g><path d="M 29.296875 1.515625 C 25.554688 1.515625 22.101562 0.820312 18.9375 -0.5625 C 15.78125 -1.945312 13.039062 -3.859375 10.71875 -6.296875 C 8.394531 -8.742188 6.585938 -11.578125 5.296875 -14.796875 C 4.015625 -18.015625 3.375 -21.445312 3.375 -25.09375 C 3.375 -28.738281 4.015625 -32.164062 5.296875 -35.375 C 6.585938 -38.582031 8.394531 -41.414062 10.71875 -43.875 C 13.039062 -46.332031 15.78125 -48.25 18.9375 -49.625 C 22.101562 -51.007812 25.554688 -51.703125 29.296875 -51.703125 C 33.628906 -51.703125 37.492188 -50.863281 40.890625 -49.1875 C 44.296875 -47.519531 47.144531 -45.234375 49.4375 -42.328125 C 51.726562 -39.429688 53.347656 -36.144531 54.296875 -32.46875 L 42.234375 -32.46875 C 41.128906 -35.269531 39.421875 -37.34375 37.109375 -38.6875 C 34.796875 -40.039062 32.207031 -40.71875 29.34375 -40.71875 C 27.519531 -40.71875 25.757812 -40.367188 24.0625 -39.671875 C 22.375 -38.972656 20.851562 -37.957031 19.5 -36.625 C 18.15625 -35.289062 17.082031 -33.65625 16.28125 -31.71875 C 15.488281 -29.78125 15.09375 -27.570312 15.09375 -25.09375 C 15.09375 -22.625 15.488281 -20.421875 16.28125 -18.484375 C 17.082031 -16.546875 18.15625 -14.898438 19.5 -13.546875 C 20.851562 -12.203125 22.382812 -11.175781 24.09375 -10.46875 C 25.800781 -9.769531 27.550781 -9.421875 29.34375 -9.421875 C 32.207031 -9.421875 34.796875 -10.128906 37.109375 -11.546875 C 39.421875 -12.960938 41.128906 -15.234375 42.234375 -18.359375 L 54.25 -18.359375 C 53.40625 -14.484375 51.828125 -11.046875 49.515625 -8.046875 C 47.203125 -5.054688 44.328125 -2.710938 40.890625 -1.015625 C 37.460938 0.671875 33.597656 1.515625 29.296875 1.515625 Z M 29.296875 1.515625 "/></g></g></g><g fill="#000000" fill-opacity="1"><g transform="translate(672.034669, 343.114836)"><g><path d="M 29.734375 1.515625 C 25.929688 1.515625 22.414062 0.832031 19.1875 -0.53125 C 15.96875 -1.90625 13.175781 -3.8125 10.8125 -6.25 C 8.457031 -8.6875 6.628906 -11.515625 5.328125 -14.734375 C 4.023438 -17.960938 3.375 -21.414062 3.375 -25.09375 C 3.375 -28.769531 4.023438 -32.210938 5.328125 -35.421875 C 6.628906 -38.628906 8.457031 -41.453125 10.8125 -43.890625 C 13.175781 -46.335938 15.96875 -48.25 19.1875 -49.625 C 22.414062 -51.007812 25.945312 -51.703125 29.78125 -51.703125 C 33.65625 -51.703125 37.203125 -51.007812 40.421875 -49.625 C 43.648438 -48.25 46.453125 -46.335938 48.828125 -43.890625 C 51.203125 -41.453125 53.039062 -38.628906 54.34375 -35.421875 C 55.644531 -32.210938 56.296875 -28.769531 56.296875 -25.09375 C 56.296875 -21.382812 55.644531 -17.925781 54.34375 -14.71875 C 53.039062 -11.507812 51.203125 -8.6875 48.828125 -6.25 C 46.453125 -3.8125 43.644531 -1.90625 40.40625 -0.53125 C 37.164062 0.832031 33.609375 1.515625 29.734375 1.515625 Z M 29.828125 -9.46875 C 32.660156 -9.46875 35.179688 -10.144531 37.390625 -11.5 C 39.609375 -12.851562 41.359375 -14.703125 42.640625 -17.046875 C 43.929688 -19.390625 44.578125 -22.070312 44.578125 -25.09375 C 44.578125 -28.125 43.929688 -30.816406 42.640625 -33.171875 C 41.359375 -35.535156 39.609375 -37.390625 37.390625 -38.734375 C 35.179688 -40.085938 32.660156 -40.765625 29.828125 -40.765625 C 27.035156 -40.765625 24.523438 -40.085938 22.296875 -38.734375 C 20.066406 -37.390625 18.304688 -35.535156 17.015625 -33.171875 C 15.734375 -30.816406 15.09375 -28.125 15.09375 -25.09375 C 15.09375 -22.070312 15.734375 -19.390625 17.015625 -17.046875 C 18.304688 -14.703125 20.066406 -12.851562 22.296875 -11.5 C 24.523438 -10.144531 27.035156 -9.46875 29.828125 -9.46875 Z M 29.828125 -9.46875 "/></g></g></g><g fill="#000000" fill-opacity="1"><g transform="translate(731.700316, 343.114836)"><g><path d="M 29.5 1.515625 C 26.144531 1.515625 23.035156 1.050781 20.171875 0.125 C 17.304688 -0.800781 14.796875 -2.257812 12.640625 -4.25 C 10.492188 -6.238281 8.828125 -8.8125 7.640625 -11.96875 C 6.453125 -15.125 5.859375 -18.929688 5.859375 -23.390625 L 5.859375 -50.203125 L 17.578125 -50.203125 L 17.578125 -23.734375 C 17.578125 -19.109375 18.566406 -15.570312 20.546875 -13.125 C 22.535156 -10.6875 25.5 -9.46875 29.4375 -9.46875 C 33.414062 -9.46875 36.378906 -10.695312 38.328125 -13.15625 C 40.285156 -15.613281 41.265625 -19.140625 41.265625 -23.734375 L 41.265625 -50.203125 L 53.03125 -50.203125 L 53.03125 -23.390625 C 53.03125 -18.929688 52.4375 -15.125 51.25 -11.96875 C 50.0625 -8.8125 48.390625 -6.238281 46.234375 -4.25 C 44.085938 -2.257812 41.585938 -0.800781 38.734375 0.125 C 35.890625 1.050781 32.8125 1.515625 29.5 1.515625 Z M 29.5 1.515625 "/></g></g></g><g fill="#000000" fill-opacity="1"><g transform="translate(790.584697, 343.114836)"><g><path d="M 18.75 0 L 6.9375 0 L 6.9375 -50.203125 L 18.171875 -50.203125 L 18.171875 -42.390625 C 19.140625 -44.210938 20.46875 -45.820312 22.15625 -47.21875 C 23.851562 -48.613281 25.828125 -49.707031 28.078125 -50.5 C 30.328125 -51.300781 32.734375 -51.703125 35.296875 -51.703125 C 42.035156 -51.703125 47.082031 -49.5625 50.4375 -45.28125 C 53.789062 -41.007812 55.46875 -34.929688 55.46875 -27.046875 L 55.46875 0 L 43.65625 0 L 43.65625 -26.8125 C 43.65625 -31.789062 42.613281 -35.367188 40.53125 -37.546875 C 38.445312 -39.734375 35.613281 -40.828125 32.03125 -40.828125 C 29.71875 -40.828125 27.550781 -40.238281 25.53125 -39.0625 C 23.519531 -37.894531 21.882812 -36.1875 20.625 -33.9375 C 19.375 -31.6875 18.75 -28.921875 18.75 -25.640625 Z M 18.75 0 "/></g></g></g><g fill="#000000" fill-opacity="1"><g transform="translate(851.568657, 343.114836)"><g><path d="M 37.796875 0 L 27.59375 0 C 26.09375 0 24.550781 -0.132812 22.96875 -0.40625 C 21.394531 -0.6875 19.890625 -1.203125 18.453125 -1.953125 C 17.023438 -2.703125 15.75 -3.785156 14.625 -5.203125 C 13.5 -6.617188 12.601562 -8.457031 11.9375 -10.71875 C 11.269531 -12.976562 10.9375 -15.769531 10.9375 -19.09375 L 10.9375 -40.046875 L 0.53125 -40.046875 L 0.53125 -50.203125 L 10.9375 -50.203125 L 10.9375 -64.890625 L 22.75 -64.984375 L 22.75 -50.203125 L 37.796875 -50.203125 L 37.796875 -40.046875 L 22.75 -40.046875 L 22.75 -18.5625 C 22.75 -16.21875 23.09375 -14.410156 23.78125 -13.140625 C 24.46875 -11.867188 25.367188 -10.992188 26.484375 -10.515625 C 27.609375 -10.046875 28.789062 -9.8125 30.03125 -9.8125 L 37.796875 -9.8125 Z M 37.796875 0 "/></g></g></g><g fill="#000000" fill-opacity="1"><g transform="translate(891.99674, 343.114836)"><g><path d="M 12.75 -58.015625 C 10.46875 -58.015625 8.679688 -58.671875 7.390625 -59.984375 C 6.109375 -61.304688 5.46875 -62.910156 5.46875 -64.796875 C 5.46875 -66.617188 6.109375 -68.195312 7.390625 -69.53125 C 8.679688 -70.863281 10.484375 -71.53125 12.796875 -71.53125 C 15.171875 -71.53125 17 -70.863281 18.28125 -69.53125 C 19.570312 -68.195312 20.21875 -66.617188 20.21875 -64.796875 C 20.21875 -62.910156 19.570312 -61.304688 18.28125 -59.984375 C 17 -58.671875 15.15625 -58.015625 12.75 -58.015625 Z M 18.75 0 L 6.9375 0 L 6.9375 -50.203125 L 18.75 -50.203125 Z M 18.75 0 "/></g></g></g><g fill="#000000" fill-opacity="1"><g transform="translate(917.630498, 343.114836)"><g><path d="M 18.75 0 L 6.9375 0 L 6.9375 -50.203125 L 18.171875 -50.203125 L 18.171875 -42.390625 C 19.140625 -44.210938 20.46875 -45.820312 22.15625 -47.21875 C 23.851562 -48.613281 25.828125 -49.707031 28.078125 -50.5 C 30.328125 -51.300781 32.734375 -51.703125 35.296875 -51.703125 C 42.035156 -51.703125 47.082031 -49.5625 50.4375 -45.28125 C 53.789062 -41.007812 55.46875 -34.929688 55.46875 -27.046875 L 55.46875 0 L 43.65625 0 L 43.65625 -26.8125 C 43.65625 -31.789062 42.613281 -35.367188 40.53125 -37.546875 C 38.445312 -39.734375 35.613281 -40.828125 32.03125 -40.828125 C 29.71875 -40.828125 27.550781 -40.238281 25.53125 -39.0625 C 23.519531 -37.894531 21.882812 -36.1875 20.625 -33.9375 C 19.375 -31.6875 18.75 -28.921875 18.75 -25.640625 Z M 18.75 0 "/></g></g></g><g fill="#000000" fill-opacity="1"><g transform="translate(979.639802, 343.114836)"><g><path d="M 29.9375 19.046875 C 25.632812 19.046875 21.953125 18.507812 18.890625 17.4375 C 15.835938 16.363281 13.332031 14.914062 11.375 13.09375 C 9.425781 11.269531 7.96875 9.21875 7 6.9375 C 6.039062 4.65625 5.515625 2.328125 5.421875 -0.046875 L 16.546875 -0.046875 C 16.910156 1.710938 17.5625 3.273438 18.5 4.640625 C 19.445312 6.003906 20.835938 7.082031 22.671875 7.875 C 24.515625 8.675781 26.921875 9.078125 29.890625 9.078125 C 32.617188 9.078125 34.941406 8.6875 36.859375 7.90625 C 38.785156 7.125 40.347656 6.050781 41.546875 4.6875 C 42.753906 3.320312 43.632812 1.753906 44.1875 -0.015625 C 44.738281 -1.796875 45.015625 -3.660156 45.015625 -5.609375 L 45.015625 -10.75 C 43.328125 -7.457031 40.941406 -5.046875 37.859375 -3.515625 C 34.785156 -1.984375 31.378906 -1.21875 27.640625 -1.21875 C 24.085938 -1.21875 20.820312 -1.867188 17.84375 -3.171875 C 14.863281 -4.472656 12.300781 -6.265625 10.15625 -8.546875 C 8.007812 -10.828125 6.34375 -13.472656 5.15625 -16.484375 C 3.96875 -19.492188 3.375 -22.707031 3.375 -26.125 C 3.375 -29.539062 3.957031 -32.78125 5.125 -35.84375 C 6.300781 -38.90625 7.953125 -41.628906 10.078125 -44.015625 C 12.210938 -46.410156 14.734375 -48.289062 17.640625 -49.65625 C 20.554688 -51.019531 23.757812 -51.703125 27.25 -51.703125 C 30.238281 -51.703125 32.910156 -51.222656 35.265625 -50.265625 C 37.628906 -49.304688 39.632812 -48.0625 41.28125 -46.53125 C 42.925781 -45 44.1875 -43.375 45.0625 -41.65625 L 45.0625 -50.203125 L 56.296875 -50.203125 L 56.296875 -5.765625 C 56.296875 -2.242188 55.722656 1.019531 54.578125 4.03125 C 53.441406 7.039062 51.75 9.664062 49.5 11.90625 C 47.257812 14.15625 44.503906 15.90625 41.234375 17.15625 C 37.960938 18.414062 34.195312 19.046875 29.9375 19.046875 Z M 29.828125 -11.46875 C 31.878906 -11.46875 33.800781 -11.847656 35.59375 -12.609375 C 37.382812 -13.378906 38.953125 -14.445312 40.296875 -15.8125 C 41.648438 -17.1875 42.703125 -18.757812 43.453125 -20.53125 C 44.203125 -22.300781 44.578125 -24.179688 44.578125 -26.171875 C 44.578125 -28.128906 44.203125 -29.984375 43.453125 -31.734375 C 42.703125 -33.492188 41.660156 -35.046875 40.328125 -36.390625 C 38.992188 -37.742188 37.429688 -38.8125 35.640625 -39.59375 C 33.847656 -40.375 31.910156 -40.765625 29.828125 -40.765625 C 27.066406 -40.765625 24.570312 -40.144531 22.34375 -38.90625 C 20.113281 -37.675781 18.347656 -35.96875 17.046875 -33.78125 C 15.742188 -31.601562 15.09375 -29.066406 15.09375 -26.171875 C 15.09375 -23.335938 15.742188 -20.8125 17.046875 -18.59375 C 18.347656 -16.382812 20.113281 -14.644531 22.34375 -13.375 C 24.570312 -12.101562 27.066406 -11.46875 29.828125 -11.46875 Z M 29.828125 -11.46875 "/></g></g></g></svg>