<svg width="1900" height="300" xmlns="http://www.w3.org/2000/svg" version="1.0" preserveAspectRatio="xMidYMid meet">
 <g>
  <title>Layer 1</title>
  <g stroke="null" transform="translate(0 1080) scale(0.1 -0.1)" fill="#000000" id="svg_1">
   <path stroke="null" d="m1899.93002,10250.27482c-56.48194,-10.21573 -69.93002,-30.64718 -69.93002,-104.01466c0,-52.00733 18.82731,-224.74596 40.34424,-364.98001c1.79308,-14.85924 8.06885,-186.66916 12.55154,-380.76795c9.86193,-381.69665 21.51693,-581.36764 41.24078,-719.74429c24.20654,-169.02382 42.13732,-197.81359 122.8258,-197.81359c62.75771,0 103.10195,22.28886 121.03272,65.93786c12.55154,30.64718 13.44808,54.79344 3.58615,210.81542c-5.37923,97.51374 -14.34462,303.68565 -18.82731,459.70764c-17.03424,536.78993 -52.89578,874.83757 -103.10195,974.20872c-22.41347,46.43512 -84.27464,69.65267 -149.72196,56.65084l0.00001,0.00002z" id="svg_2"/>
   <path stroke="null" d="m13774.58494,10166.69161c-16.1377,-9.28702 -34.96501,-27.86107 -43.03386,-40.8629c-17.03424,-26.93237 -31.37885,-150.44977 -31.37885,-279.53939c0,-113.30168 -9.86193,-134.66183 -61.86117,-134.66183c-18.82731,0 -51.99924,-9.28702 -73.51617,-21.36015c-81.58502,-44.57771 -103.99849,-127.23222 -52.89578,-200.5997c32.27539,-45.50641 45.72347,-52.00733 129.99811,-60.36565c34.96501,-3.71481 68.13694,-12.07313 74.41271,-18.57405c6.27577,-6.50092 23.31001,-95.65634 37.65462,-202.4571c45.72347,-325.04581 81.58502,-435.56138 170.34235,-527.50291c68.13694,-70.58138 104.89503,-88.22672 189.16966,-88.22672c58.27501,0 76.20579,4.64351 125.51542,29.71847c121.92926,63.15176 196.34197,147.66367 196.34197,224.74596c0,42.72031 -31.37885,100.29985 -64.55079,117.94519c-38.55116,20.43145 -87.86079,12.07313 -145.23927,-25.07496c-93.24002,-61.29435 -111.1708,-69.65267 -128.20503,-58.50825c-8.96539,5.57221 -20.62039,27.86107 -26.89616,50.14992c-17.93077,65.00916 -66.34386,368.69482 -71.7231,455.99283c-6.27577,94.72764 -10.75846,91.94153 125.51542,91.94153c138.9635,0 176.61812,28.78977 176.61812,133.73313c0,98.44244 -49.30963,126.30351 -222.34159,126.30351l-98.61926,0l-3.58615,160.6655c-5.37923,185.74046 -17.93077,237.74779 -64.55079,267.46626c-36.75809,23.21756 -99.51579,23.21756 -137.17042,-0.9287l0.00001,0.00001z" id="svg_3"/>
   <path stroke="null" d="m14663.05478,10121.1852c-74.41271,-47.36382 -76.20579,-189.45527 -2.68962,-245.17741c46.62001,-35.29069 121.92926,-15.78794 162.2735,41.7916c16.1377,23.21756 20.62039,42.72031 20.62039,83.58321c0,45.50641 -3.58615,56.65084 -26.89616,82.65451c-49.30963,53.86473 -104.89503,67.79527 -153.30812,37.14809l0.00001,0z" id="svg_4"/>
   <path stroke="null" d="m6466.00156,9955.87618c-20.62039,-18.57405 -35.86155,-57.57954 -130.89465,-341.76245c-91.44695,-272.10978 -103.10195,-301.82825 -116.55003,-301.82825c-17.03424,0 -38.55116,34.36199 -103.99849,167.16642c-47.51655,97.51374 -67.2404,127.23222 -124.61888,187.59787c-123.72234,130.01832 -228.61737,154.16458 -294.96123,66.86657c-39.4477,-52.00733 -18.82731,-117.01649 69.03348,-223.81726c77.99887,-92.87023 117.44657,-160.6655 225.03121,-387.26886c53.79232,-113.30168 110.27426,-222.88855 125.51542,-245.17741c56.48194,-78.9397 115.65349,-95.65634 177.51466,-49.22122c69.03348,51.07863 88.75733,95.65634 222.34159,479.21039c118.34311,341.76245 149.72196,450.42062 151.51504,530.28902c0.89654,46.43512 -2.68962,70.58138 -12.55154,82.65451c-36.75809,46.43512 -149.72196,66.86657 -187.37659,35.29069l0.00001,-0.00002z" id="svg_5"/>
   <path stroke="null" d="m8379.21512,9913.15588c-51.99924,-21.36015 -81.58502,-42.72031 -121.92926,-87.29802c-53.79232,-59.43695 -84.27464,-115.15909 -116.55003,-212.67283c-73.51617,-225.67466 -68.13694,-461.56505 17.03424,-643.5907c30.48232,-65.93786 117.44657,-157.87939 180.20428,-191.31268c169.44581,-88.22672 385.51164,-53.86473 580.95707,94.72764c120.13618,91.94153 140.75657,195.02748 50.20617,257.25054c-63.65425,43.64901 -81.58502,41.7916 -179.30774,-19.50275c-109.37772,-67.79527 -139.86004,-82.65451 -206.2039,-96.58504c-66.34386,-13.93053 -111.1708,-5.57221 -149.72196,29.71847c-47.51655,42.72031 -61.86117,89.15542 -66.34386,223.81726c-6.27577,185.74046 21.51693,302.75695 86.06771,361.2652c27.7927,26.00366 36.75809,28.78977 73.51617,25.07496c91.44695,-9.28702 190.96274,-78.01099 230.41044,-159.7368c27.7927,-59.43695 78.8954,-114.23038 111.1708,-121.66c40.34424,-9.28702 93.24002,11.14443 123.72234,46.43512c23.31001,27.86107 27.7927,40.8629 27.7927,82.65451c0,134.66183 -100.41233,281.3968 -240.27237,350.12077c-127.30849,62.22305 -324.54701,91.94153 -400.75279,61.29435l-0.00001,0z" id="svg_6"/>
   <path stroke="null" d="m9434.44115,9902.01145c-157.79081,-76.15359 -266.27199,-325.97451 -264.47891,-608.30001c1.79308,-323.1884 152.41158,-533.07512 404.33895,-562.7936c139.86004,-15.78794 350.54663,65.00916 470.68281,181.09695c60.96463,58.50825 76.20579,137.44794 36.75809,186.66916c-25.99962,30.64718 -82.48156,65.00916 -109.37772,65.00916c-8.96539,0 -60.06809,-26.93237 -113.86041,-60.36565c-118.34311,-73.36748 -169.44581,-91.94153 -248.34122,-92.87023c-67.2404,0 -97.72272,15.78794 -127.30849,69.65267c-55.5854,97.51374 -53.79232,365.90871 3.58615,487.56871c43.9304,94.72764 103.99849,110.51557 210.68659,56.65084c70.82656,-35.29069 115.65349,-79.8684 153.30812,-152.30718c26.89616,-53.86473 64.55079,-91.94153 96.82618,-100.29985c33.17193,-8.35832 95.92964,13.93053 122.8258,43.64901c28.68924,32.50458 35.86155,70.58138 24.20654,138.37664c-22.41347,130.01832 -121.92926,248.89222 -256.41006,306.47176c-157.79081,68.72397 -314.68508,84.51191 -403.44241,41.7916l-0.00001,0.00002z" id="svg_7"/>
   <path stroke="null" d="m16632.75028,9911.29847c-95.92964,-22.28886 -149.72196,-55.72214 -239.37583,-147.66367c-103.10195,-106.80077 -148.82542,-185.74046 -179.30774,-308.32917c-43.03386,-173.66733 -28.68924,-338.97634 40.34424,-451.34932c70.82656,-115.15909 169.44581,-175.52474 297.65084,-182.02565c95.92964,-4.64351 160.48043,14.85924 268.96161,82.65451c40.34424,25.07496 76.20579,43.64901 77.99887,40.8629c2.68962,-2.78611 -1.79308,-40.8629 -10.75846,-84.51191c-34.06847,-180.16825 -106.6881,-259.10794 -264.47891,-286.96901c-117.44657,-21.36015 -145.23927,-30.64718 -167.65273,-52.00733c-44.82693,-43.64901 -38.55116,-128.16092 13.44808,-184.81176l34.06847,-37.14809l84.27464,0c156.89427,0 299.44392,59.43695 402.54587,167.16642c139.86004,146.73496 178.4112,316.68749 166.7562,747.60536c-7.17231,243.32 -17.93077,405.84291 -34.06847,492.21222c-12.55154,66.86657 -39.4477,97.51374 -124.61888,140.23405c-132.68773,67.79527 -259.09968,89.15542 -365.78778,64.08046l-0.00002,-0.00001zm187.37659,-287.89772c40.34424,-26.00366 -63.65425,-394.69848 -133.58426,-470.85207c-40.34424,-44.57771 -114.75695,-65.00916 -156.89427,-43.64901c-40.34424,20.43145 -60.06809,54.79344 -65.44732,117.01649c-14.34462,167.16642 76.20579,361.2652 187.37659,400.27069c32.27539,11.14443 149.72196,9.28702 168.54927,-2.78611l-0.00001,0.00001z" id="svg_8"/>
   <path stroke="null" d="m7225.36982,9879.7226c-35.86155,-9.28702 -80.68848,-30.64718 -110.27426,-52.00733c-106.6881,-75.22489 -222.34159,-232.17558 -274.34084,-371.48092c-17.03424,-46.43512 -20.62039,-73.36748 -20.62039,-162.5229c-0.89654,-97.51374 1.79308,-112.37298 25.10308,-171.80993c101.30887,-250.74962 259.09968,-374.26703 444.68319,-348.26337c106.6881,14.85924 181.99735,73.36748 274.34084,209.88672c32.27539,48.29252 61.86117,87.29802 66.34386,87.29802c8.06885,0 9.86193,-5.57221 40.34424,-155.09329c37.65462,-187.59787 57.37848,-216.38764 148.82542,-216.38764c103.99849,0 130.89465,35.29069 121.92926,163.45161c-10.75846,155.09329 -126.41196,701.17024 -168.54927,790.32566c-51.99924,112.37298 -287.78892,245.17741 -432.13165,243.32c-30.48232,0 -82.48156,-7.42962 -115.65349,-16.71664l0.00001,0.00001zm195.44543,-280.4681c66.34386,-21.36015 77.10233,-70.58138 43.9304,-189.45527c-29.58578,-104.94336 -109.37772,-273.96718 -157.79081,-331.54672c-49.30963,-60.36565 -69.03348,-59.43695 -129.10157,4.64351c-66.34386,70.58138 -89.65387,125.37481 -88.75733,206.17191c2.68962,181.09695 138.9635,342.69115 272.54776,323.1884c17.03424,-2.78611 43.9304,-8.35832 59.17155,-13.00183z" id="svg_9"/>
   <path stroke="null" d="m11973.43872,9847.21801c-61.86117,-29.71847 -82.48156,-73.36748 -92.34348,-196.88489c-9.86193,-111.44428 -34.06847,-212.67283 -87.86079,-363.1226c-47.51655,-134.66183 -84.27464,-194.09878 -109.37772,-179.23955c-41.24078,22.28886 -88.75733,182.02565 -127.30849,426.27436c-14.34462,93.79893 -33.17193,184.81176 -40.34424,201.5284c-16.1377,35.29069 -62.75771,68.72397 -94.13656,68.72397c-37.65462,0 -92.34348,-39.0055 -111.1708,-78.9397c-25.99962,-55.72214 -24.20654,-278.61069 3.58615,-407.70031c38.55116,-175.52474 101.30887,-310.18657 189.16966,-407.70031c105.79157,-117.94519 207.10044,-143.94886 308.40931,-80.7971c28.68924,17.64534 63.65425,44.57771 77.99887,59.43695l25.10308,26.93237l16.1377,-30.64718c43.03386,-80.7971 86.96425,-111.44428 158.68735,-111.44428c47.51655,0 71.7231,21.36015 86.06771,73.36748c11.655,42.72031 11.655,227.53207 0,539.57604c-13.44808,376.12443 -26.89616,440.20489 -95.0331,469.92337c-40.34424,17.64534 -54.68886,16.71664 -107.58464,-9.28702l-0.00001,0z" id="svg_10"/>
   <path stroke="null" d="m2389.44014,9850.93282c-9.86193,-3.71481 -29.58578,-20.43145 -42.13732,-37.14809c-34.06847,-41.7916 -32.27539,-96.58504 6.27577,-206.17191c40.34424,-117.01649 54.68886,-184.81176 90.55041,-442.0623c44.82693,-325.04581 54.68886,-349.19207 141.65311,-360.3365l51.99924,-5.57221l38.55116,41.7916c51.10271,54.79344 69.93002,109.58687 112.96387,325.97451c46.62001,236.81909 79.79194,338.04764 117.44657,358.47909c15.24116,8.35832 21.51693,5.57221 43.9304,-18.57405c36.75809,-39.9342 58.27501,-107.72947 103.99849,-314.83008c54.68886,-252.60703 83.3781,-303.68565 170.34235,-301.82825c51.10271,0.9287 83.3781,25.07496 100.41233,73.36748c17.03424,50.14992 8.96539,182.95435 -19.72385,331.54672c-43.9304,223.81726 -105.79157,363.1226 -201.7212,455.99283c-124.61888,118.8739 -257.3066,105.87206 -400.75279,-41.7916l-63.65425,-65.00916l-33.17193,62.22305c-71.7231,131.87573 -138.9635,176.45344 -216.96236,143.94886l0,0.00001z" id="svg_11"/>
   <path stroke="null" d="m3535.21658,9844.43191c-64.55079,-32.50458 -72.61963,-110.51557 -25.10308,-246.10611c37.65462,-107.72947 60.06809,-219.17374 90.55041,-451.34932c25.10308,-192.24138 47.51655,-289.75512 70.82656,-316.68749c9.86193,-11.14443 34.06847,-19.50275 64.55079,-24.14626c44.82693,-5.57221 51.99924,-3.71481 80.68848,18.57405c29.58578,24.14626 69.93002,91.94153 86.06771,148.59237c4.48269,14.85924 21.51693,98.44244 38.55116,185.74046c38.55116,197.81359 71.7231,311.11527 102.20541,349.19207c21.51693,26.00366 26.89616,27.86107 43.03386,18.57405c41.24078,-22.28886 80.68848,-134.66183 131.79119,-377.05314c48.41309,-228.46077 99.51579,-292.54123 199.03159,-250.74962c69.93002,28.78977 86.06771,99.37115 61.86117,277.68199c-44.82693,338.97634 -146.13581,551.64917 -296.75431,628.73146c-50.20617,26.00366 -63.65425,28.78977 -110.27426,24.14626c-77.99887,-6.50092 -129.10157,-34.36199 -207.10044,-114.23038l-69.93002,-70.58138l-36.75809,65.00916c-20.62039,36.21939 -47.51655,78.01099 -60.06809,94.72764c-45.72347,54.79344 -104.89503,69.65267 -163.17004,39.9342l0,-0.00001z" id="svg_12"/>
   <path stroke="null" d="m12381.36382,9838.85969c-62.75771,-43.64901 -67.2404,-97.51374 -20.62039,-234.03298c43.03386,-128.16092 52.89578,-174.59603 88.75733,-433.70398c30.48232,-224.74596 47.51655,-303.68565 69.03348,-335.26153c11.655,-16.71664 63.65425,-33.43328 103.10195,-34.36199c10.75846,0 34.06847,13.00183 51.99924,29.71847c59.17155,52.93603 73.51617,96.58504 135.37734,397.48459c46.62001,230.31817 86.06771,321.331 129.10157,297.18474c42.13732,-23.21756 82.48156,-131.87573 121.03272,-325.04581c44.82693,-224.74596 77.10233,-295.32733 146.13581,-311.11527c35.86155,-7.42962 90.55041,13.93053 112.96387,44.57771c17.03424,24.14626 18.82731,38.07679 17.93077,139.30535c-1.79308,169.02382 -43.9304,365.90871 -112.06734,515.42978c-45.72347,103.08596 -139.86004,204.31451 -213.37621,229.38947c-99.51579,34.36199 -190.0662,2.78611 -298.54738,-104.94336l-68.13694,-67.79527l-30.48232,58.50825c-16.1377,32.50458 -50.20617,80.7971 -76.20579,107.72947c-42.13732,43.64901 -50.20617,48.29252 -86.06771,48.29252c-25.99962,0 -49.30963,-7.42962 -69.93002,-21.36015l0.00002,-0.00001z" id="svg_13"/>
   <path stroke="null" d="m15094.28989,9845.36061c-69.03348,-36.21939 -77.10233,-107.72947 -27.7927,-247.03481c40.34424,-116.08779 53.79232,-180.16825 85.17118,-421.63085c43.03386,-321.331 55.5854,-355.69298 130.89465,-368.69482c55.5854,-9.28702 88.75733,4.64351 121.92926,52.00733c37.65462,53.86473 57.37848,115.15909 92.34348,297.18474c37.65462,191.31268 77.10233,325.04581 103.99849,354.76428c53.79232,59.43695 107.58464,-43.64901 162.2735,-309.25787c15.24116,-75.22489 35.86155,-163.45161 46.62001,-195.02748c31.37885,-101.22855 89.65387,-140.23405 164.06658,-108.65817c64.55079,26.93237 83.3781,92.87023 66.34386,237.74779c-42.13732,362.1939 -143.44619,588.79726 -300.34046,668.66566c-51.99924,26.00366 -64.55079,28.78977 -112.96387,24.14626c-77.10233,-7.42962 -137.17042,-40.8629 -212.47967,-119.8026l-63.65425,-66.86657l-16.1377,31.57588c-38.55116,73.36748 -90.55041,144.87756 -118.34311,164.38031c-35.86155,25.07496 -83.3781,27.86107 -121.92926,6.50092l0.00001,0z" id="svg_14"/>
   <path stroke="null" d="m4976.85079,9842.5745c-146.13581,-32.50458 -281.51315,-215.45894 -328.13316,-445.77711c-18.82731,-91.94153 -21.51693,-329.68932 -4.48269,-400.27069c24.20654,-103.08596 95.0331,-208.02932 185.58351,-274.89588c79.79194,-58.50825 118.34311,-71.51008 218.75544,-71.51008c210.68659,0 352.3397,112.37298 417.78703,331.54672c8.96539,31.57588 16.1377,110.51557 21.51693,242.3913c5.37923,159.7368 10.75846,205.24321 25.99962,252.60703c23.31001,71.51008 23.31001,91.94153 0.89654,130.01832c-34.06847,58.50825 -214.27275,170.88122 -345.16739,214.53023c-64.55079,21.36015 -148.82542,30.64718 -192.75582,21.36015l-0.00001,0.00001zm161.37696,-309.25787c60.06809,-61.29435 93.24002,-196.88489 88.75733,-358.47909c-3.58615,-88.22672 -7.17231,-105.87206 -30.48232,-155.09329c-21.51693,-45.50641 -34.06847,-59.43695 -67.2404,-76.15359c-77.99887,-40.8629 -147.03234,-22.28886 -191.85928,52.00733c-73.51617,119.8026 -71.7231,292.54123 4.48269,453.20673c52.89578,112.37298 133.58426,146.73496 196.34197,84.51191l0.00001,0z" id="svg_15"/>
   <path stroke="null" d="m10577.52798,9837.93099c-129.10157,-37.14809 -247.44468,-190.38397 -304.82315,-394.69848c-17.03424,-62.22305 -19.72385,-91.94153 -19.72385,-260.96535l0,-190.38397l33.17193,-72.43878c41.24078,-89.15542 128.20503,-186.66916 203.51428,-228.46077c149.72196,-82.65451 349.65009,-47.36382 478.75166,84.51191c97.72272,100.29985 127.30849,202.4571 136.27388,469.92337c3.58615,130.01832 8.96539,182.95435 22.41347,227.53207c9.86193,31.57588 17.93077,70.58138 17.93077,85.44061c0,38.07679 -40.34424,86.36931 -114.75695,137.44794c-168.54927,116.08779 -347.85701,171.80993 -452.75204,142.09145zm160.48043,-289.75512c86.06771,-58.50825 137.17042,-355.69298 86.06771,-499.64184c-23.31001,-65.93786 -39.4477,-86.36931 -86.96425,-108.65817c-89.65387,-42.72031 -156.89427,-12.07313 -205.30736,92.87023c-26.89616,58.50825 -27.7927,66.86657 -26.89616,172.73863c0,99.37115 2.68962,118.8739 25.10308,181.09695c30.48232,82.65451 68.13694,143.02016 102.20541,161.5942c32.27539,18.57405 77.99887,18.57405 105.79157,0z" id="svg_16"/>
   <path stroke="null" d="m14643.33093,9646.61832c-18.82731,-12.07313 -36.75809,-35.29069 -48.41309,-62.22305c-16.1377,-39.0055 -17.93077,-55.72214 -13.44808,-151.37848c6.27577,-115.15909 36.75809,-286.96901 74.41271,-408.62902c26.89616,-89.15542 51.10271,-111.44428 123.72234,-111.44428c36.75809,0 47.51655,4.64351 72.61963,30.64718c43.9304,45.50641 47.51655,98.44244 23.31001,316.68749c-31.37885,285.11161 -53.79232,370.55222 -103.99849,393.76978c-35.86155,16.71664 -95.0331,13.93053 -128.20503,-7.42962z" id="svg_17"/>
  </g>
 </g>

</svg>