<?xml version="1.0" standalone="no"?>
<!DOCTYPE svg PUBLIC "-//W3C//DTD SVG 20010904//EN"
 "http://www.w3.org/TR/2001/REC-SVG-20010904/DTD/svg10.dtd">
<svg version="1.0" xmlns="http://www.w3.org/2000/svg"
 width="2083.000000pt" height="2083.000000pt" viewBox="0 0 2083.000000 2083.000000"
 preserveAspectRatio="xMidYMid meet">

<g transform="translate(0.000000,2083.000000) scale(0.100000,-0.100000)"
fill="#000000" stroke="none">
<path d="M6117 14396 c-23 -6 -35 -15 -30 -20 4 -5 3 -6 -4 -2 -20 11 -87 -30
-136 -84 -117 -130 -135 -277 -54 -432 l30 -58 287 0 c326 0 298 -8 345 94 23
49 28 73 29 145 1 113 -27 176 -119 267 -52 53 -69 64 -86 59 -14 -5 -19 -3
-15 3 17 28 -176 50 -247 28z"/>
<path d="M5540 13723 c-26 -32 -43 -71 -35 -84 5 -8 4 -10 -3 -5 -7 4 -18 -7
-28 -26 -9 -18 -22 -40 -29 -48 -7 -8 -28 -44 -48 -80 -19 -36 -49 -89 -66
-118 -17 -29 -31 -55 -31 -58 0 -3 -7 -13 -16 -21 -8 -9 -13 -24 -11 -35 3
-10 1 -16 -3 -13 -8 5 -81 -111 -120 -190 -8 -16 -21 -36 -27 -43 -7 -7 -13
-17 -13 -22 0 -5 -18 -38 -41 -74 -23 -37 -38 -70 -33 -77 5 -8 3 -9 -6 -4
-10 6 -12 4 -7 -9 4 -10 3 -15 -3 -11 -8 5 -40 -43 -40 -59 0 -3 314 -5 698
-3 l697 2 0 425 1 425 102 0 102 0 6 42 c3 22 3 55 -1 72 l-6 30 -512 1 c-479
0 -513 -1 -527 -17z m-149 -306 c-10 -9 -11 -8 -5 6 3 10 9 15 12 12 3 -3 0
-11 -7 -18z m-140 -240 c-10 -9 -11 -8 -5 6 3 10 9 15 12 12 3 -3 0 -11 -7
-18z"/>
<path d="M3449 13620 c-68 -9 -201 -48 -195 -58 2 -4 -7 -8 -20 -8 -29 -2
-132 -75 -197 -140 -54 -54 -127 -170 -157 -252 -11 -29 -25 -95 -32 -146 -10
-80 -9 -104 5 -172 10 -43 18 -85 19 -91 1 -10 101 -13 464 -13 l462 0 51 85
c28 47 51 88 51 91 0 3 15 28 33 57 18 29 36 59 40 67 4 8 17 31 28 50 12 19
31 53 42 75 12 22 24 42 27 45 3 3 15 21 27 41 20 35 20 36 2 60 -11 13 -22
29 -26 34 -53 71 -139 149 -154 139 -5 -3 -8 0 -7 7 3 15 -141 94 -192 105
-19 4 -42 9 -50 11 -23 6 -144 22 -155 21 -5 0 -35 -4 -66 -8z"/>
<path d="M8155 13568 c-3 -13 -45 -225 -95 -473 -49 -247 -92 -456 -95 -462
-3 -10 -602 -13 -2948 -13 l-2944 0 42 -152 c24 -84 73 -261 110 -393 37 -132
82 -294 100 -360 79 -281 219 -784 232 -832 7 -29 29 -89 47 -132 147 -349
425 -608 778 -726 204 -68 102 -65 2176 -65 1029 0 1872 -3 1872 -6 0 -4 -9
-46 -21 -94 -44 -188 -169 -323 -353 -379 -68 -21 -77 -21 -1395 -23 -729 -1
-1436 -4 -1571 -8 -235 -5 -248 -7 -325 -33 -213 -75 -377 -242 -457 -464 -30
-85 -37 -278 -13 -376 60 -249 232 -437 480 -524 l80 -28 2230 -3 c2493 -3
2275 -9 2355 70 119 120 75 309 -88 379 -42 18 -121 19 -2231 19 l-2187 0 -52
26 c-120 60 -170 211 -109 330 29 57 55 83 117 115 l45 24 1460 -3 c1511 -4
1622 -1 1760 37 137 38 190 62 306 139 163 109 302 286 374 477 15 38 63 250
107 470 44 220 98 488 119 595 22 107 58 285 79 395 22 110 122 610 223 1110
l183 910 679 5 c757 6 720 2 786 75 36 39 68 112 69 157 1 77 -61 173 -140
214 -33 18 -79 19 -907 22 l-873 2 -5 -22z m-275 -1362 c0 -8 -39 -207 -86
-443 -47 -235 -130 -646 -184 -913 l-97 -485 -1929 0 -1929 0 -85 23 c-47 12
-126 42 -176 67 -89 45 -243 159 -244 182 0 9 443 11 1933 10 2088 -2 1971 -5
1996 50 19 42 13 80 -18 115 l-29 33 -2014 2 -2013 2 -14 21 c-12 17 -75 211
-92 280 -4 13 240 16 2129 20 l2134 5 25 29 c32 38 27 96 -11 135 l-26 26
-2154 3 -2154 2 -16 48 c-8 26 -27 92 -42 147 -14 55 -29 105 -31 112 -4 11
427 13 2237 13 l2242 0 35 35 c32 32 35 40 30 73 -4 24 -17 47 -37 65 l-30 27
-2269 0 -2268 0 -13 48 c-22 83 -68 246 -75 265 -7 16 123 17 2634 17 2272 0
2641 -2 2641 -14z"/>
<path d="M9248 12178 c-41 -11 -84 -54 -94 -94 -15 -58 25 -116 94 -137 26 -9
73 -23 105 -33 76 -22 107 -52 107 -101 -1 -47 -16 -68 -63 -88 -66 -28 -157
-16 -220 28 -38 26 -49 11 -14 -18 54 -47 192 -61 257 -27 48 26 75 77 66 126
-10 53 -43 79 -133 105 -108 31 -133 41 -154 65 -21 22 -25 76 -9 107 28 51
154 69 230 31 45 -22 65 -12 27 13 -53 34 -126 43 -199 23z"/>
<path d="M9870 12007 c0 -170 2 -186 23 -227 32 -65 89 -92 183 -88 59 3 77 8
107 30 60 46 72 95 72 292 0 120 -3 170 -12 173 -8 3 -12 -45 -15 -179 -3
-161 -5 -187 -23 -217 -35 -59 -67 -76 -145 -76 -78 0 -110 17 -145 76 -18 30
-20 56 -23 217 -2 102 -8 182 -13 182 -5 0 -9 -78 -9 -183z"/>
<path d="M10680 11941 c0 -216 2 -251 15 -251 12 0 15 15 15 78 l0 79 104 6
c111 6 158 20 193 58 72 79 49 205 -45 250 -38 19 -68 24 -164 27 l-118 4 0
-251z m265 205 c45 -19 75 -69 75 -124 0 -103 -58 -141 -212 -142 l-98 0 0
140 0 140 100 0 c65 0 113 -5 135 -14z"/>
<path d="M11430 11940 l0 -250 164 0 c99 0 167 4 171 10 4 7 -48 10 -149 10
l-156 0 0 110 0 110 130 0 c80 0 130 4 130 10 0 6 -50 10 -130 10 l-130 0 0
105 0 105 151 0 c116 0 150 3 147 13 -4 9 -48 13 -166 15 l-162 2 0 -250z"/>
<path d="M12150 11941 c0 -216 2 -251 15 -251 12 0 15 16 15 80 l0 80 63 0
c34 0 78 3 97 6 34 6 36 4 95 -80 33 -47 66 -86 73 -86 19 0 15 7 -39 82 -27
38 -52 75 -54 81 -2 7 10 21 27 32 72 46 96 127 60 207 -30 69 -83 91 -234 96
l-118 4 0 -251z m263 205 c57 -24 72 -50 72 -126 0 -59 -3 -72 -24 -94 -33
-35 -78 -46 -188 -46 l-93 0 0 140 0 140 100 0 c63 0 113 -5 133 -14z"/>
<path d="M12910 11940 c0 -157 4 -250 10 -250 6 0 11 85 12 221 l3 221 106
-183 c58 -100 110 -184 115 -186 5 -2 52 72 104 163 52 92 100 174 107 183 10
13 12 -28 13 -201 0 -187 2 -218 15 -218 13 0 15 33 12 245 -1 135 -6 246 -11
248 -10 2 -42 -49 -160 -256 l-78 -138 -37 64 c-21 34 -72 124 -115 200 -42
75 -81 137 -87 137 -5 0 -9 -99 -9 -250z"/>
<path d="M13840 11940 l0 -250 171 0 c111 0 168 3 164 10 -4 6 -67 10 -156 10
l-149 0 -1 90 c-1 50 -2 98 -3 108 -1 15 12 17 132 20 174 3 176 22 3 22
l-130 0 -3 83 c-5 139 -20 127 148 127 121 0 144 2 144 15 0 13 -24 15 -160
15 l-160 0 0 -250z"/>
<path d="M14560 11940 c0 -216 2 -250 15 -250 12 0 15 16 15 80 l0 80 54 0
c29 0 73 3 97 6 l44 6 60 -86 c33 -47 66 -85 73 -86 6 0 12 2 12 5 0 3 -27 42
-60 87 l-59 83 28 12 c94 40 119 171 48 250 -40 43 -114 63 -239 63 l-88 0 0
-250z m269 202 c52 -26 72 -60 73 -121 0 -104 -54 -141 -209 -141 l-102 0 -3
118 c-5 177 -15 162 105 162 77 0 110 -4 136 -18z"/>
<path d="M15465 12181 c-91 -22 -153 -78 -181 -165 -43 -129 34 -280 161 -316
86 -24 234 8 243 52 2 12 -11 8 -54 -13 -73 -37 -139 -38 -209 -5 -87 41 -125
102 -126 205 -2 129 95 224 228 222 65 0 88 -7 126 -33 39 -28 49 -12 12 18
-45 36 -132 51 -200 35z"/>
<path d="M16201 12169 c-12 -13 -21 -26 -21 -30 0 -4 -21 -51 -46 -106 -98
-208 -154 -336 -150 -340 10 -11 25 10 51 71 l28 65 137 3 c76 2 144 2 152 0
9 -2 29 -34 46 -72 17 -39 36 -70 41 -70 6 0 11 3 11 7 0 6 -219 485 -225 491
-2 2 -12 -7 -24 -19z m82 -159 c31 -69 58 -131 59 -138 2 -11 -23 -13 -127
-12 -71 0 -130 2 -131 3 -2 1 27 66 63 145 36 79 69 139 73 135 4 -4 32 -64
63 -133z"/>
<path d="M16800 11941 l0 -251 118 0 c133 0 179 10 238 51 121 83 128 284 13
382 -54 47 -96 58 -241 64 l-128 6 0 -252z m281 208 c153 -52 198 -259 81
-371 -52 -50 -112 -68 -232 -68 l-99 0 -3 203 c-2 111 -2 212 0 225 3 21 7 22
111 22 60 0 123 -5 142 -11z"/>
<path d="M17785 12181 c-161 -39 -241 -212 -166 -359 75 -147 287 -179 408
-60 132 130 76 360 -101 413 -53 16 -92 17 -141 6z m177 -48 c136 -67 154
-271 33 -371 -87 -71 -218 -69 -304 4 -48 41 -71 98 -72 173 -3 176 177 278
343 194z"/>
<path d="M18537 12176 c-50 -18 -74 -41 -88 -83 -25 -77 13 -124 129 -158 156
-47 172 -58 172 -126 0 -64 -53 -99 -150 -99 -44 0 -117 24 -141 46 -9 8 -20
11 -23 6 -8 -14 25 -40 73 -57 97 -34 224 -7 256 56 39 75 -5 145 -111 174
-149 41 -184 64 -184 123 0 63 34 94 120 107 34 5 59 1 100 -14 29 -11 56 -19
58 -16 10 10 -13 26 -60 40 -63 18 -101 18 -151 1z"/>
<path d="M14620 11460 c-8 -5 -45 -22 -83 -38 -37 -16 -64 -32 -60 -37 5 -4 3
-5 -4 -1 -7 4 -20 2 -30 -4 -10 -5 -58 -27 -108 -48 -49 -22 -113 -49 -141
-62 l-51 -23 -2 -89 -2 -89 28 7 c15 4 36 11 46 16 9 5 21 6 26 3 5 -3 22 0
38 6 15 6 44 13 63 16 19 3 73 13 120 24 47 11 103 22 125 25 76 12 75 8 75
164 0 144 -3 152 -40 130z"/>
<path d="M8545 10892 c-7 -4 -10 -363 -10 -1039 0 -911 2 -1033 15 -1034 10 0
8 -3 -5 -9 -14 -6 -15 -9 -5 -10 15 -1 633 -2 678 -1 21 1 22 4 22 96 0 79 -3
96 -17 104 -17 10 -17 10 -1 11 27 0 18 38 -11 45 -14 4 -104 5 -201 4 l-175
-2 0 914 c0 598 -3 917 -10 921 -5 4 -68 8 -140 8 -71 0 -134 -4 -140 -8z"/>
<path d="M9644 10892 c-6 -4 -16 -45 -23 -92 -6 -47 -18 -128 -26 -180 -8 -52
-14 -116 -15 -142 0 -29 -5 -48 -11 -48 -8 0 -9 -13 -5 -40 4 -27 3 -40 -5
-40 -7 0 -9 -12 -4 -36 4 -22 2 -39 -4 -43 -6 -4 -12 -34 -15 -66 -2 -33 -7
-67 -10 -75 -3 -8 -8 -44 -11 -80 -6 -69 -8 -87 -26 -190 -14 -83 -14 -97 -7
-145 4 -22 4 -32 2 -22 -11 36 -26 17 -19 -24 5 -27 4 -39 -3 -35 -5 3 -9 0
-9 -7 1 -6 -2 -37 -6 -67 -5 -30 -10 -71 -12 -90 -2 -19 -11 -87 -20 -150 -9
-63 -20 -146 -25 -185 -5 -38 -19 -128 -30 -199 -17 -104 -19 -131 -8 -137 12
-7 268 -2 276 5 2 2 8 34 13 72 7 47 6 78 -2 101 -6 19 -8 37 -5 40 3 4 6 -1
6 -10 0 -9 5 -19 12 -23 8 -5 9 3 5 31 -6 34 14 139 29 154 11 12 322 7 334
-5 7 -7 13 -34 13 -62 1 -29 5 -45 10 -39 5 7 6 1 3 -15 -7 -32 4 -149 14
-143 3 2 6 -18 6 -45 -1 -26 1 -51 4 -53 8 -8 267 -13 274 -6 9 8 -22 235 -54
399 -11 53 -25 169 -23 187 0 7 -3 11 -7 8 -4 -2 -7 14 -7 38 0 23 -5 74 -11
112 -7 39 -15 90 -18 115 -4 25 -12 66 -19 92 -6 26 -9 46 -6 43 4 -2 5 15 2
38 -3 31 -6 37 -11 22 -4 -11 -6 3 -6 35 0 30 -8 105 -18 165 -19 111 -22 138
-25 188 -1 30 -17 37 -25 10 -2 -10 -2 0 2 22 8 50 7 58 -12 175 -8 52 -17
115 -21 140 -17 129 -50 296 -59 303 -13 9 -368 8 -382 -1z m373 -134 c-3 -8
-6 -5 -6 6 -1 11 2 17 5 13 3 -3 4 -12 1 -19z m-159 -339 c1 -25 6 -66 13 -90
6 -24 14 -84 19 -134 12 -142 31 -278 41 -298 5 -10 8 -21 5 -25 -2 -4 3 -57
11 -117 8 -61 15 -118 15 -127 -1 -10 3 -18 8 -18 5 0 10 -24 10 -52 1 -71 5
-107 13 -114 3 -4 1 -12 -6 -18 -14 -13 -265 -13 -278 1 -4 4 -4 31 1 58 4 28
13 95 20 150 6 55 14 116 16 135 7 50 33 278 38 325 3 22 10 81 15 130 6 50
14 122 17 160 4 39 11 81 16 95 10 24 10 24 18 5 4 -11 8 -41 8 -66z m50 -164
c-3 -3 -9 2 -12 12 -6 14 -5 15 5 6 7 -7 10 -15 7 -18z m-491 -1177 c-3 -8 -6
-5 -6 6 -1 11 2 17 5 13 3 -3 4 -12 1 -19z m640 -80 c-3 -8 -6 -5 -6 6 -1 11
2 17 5 13 3 -3 4 -12 1 -19z m-435 -174 c-8 -15 -9 -15 -15 0 -4 10 -3 15 3
11 6 -3 10 2 11 12 0 10 3 13 5 6 3 -7 1 -20 -4 -29z"/>
<path d="M11015 9858 c0 -916 2 -1038 15 -1039 10 0 8 -3 -5 -9 -23 -10 -31
-9 125 -14 63 -1 127 -1 143 2 l27 5 0 401 c0 220 0 407 0 414 0 9 35 12 139
12 83 0 142 4 146 10 3 6 13 10 22 10 30 0 102 41 136 76 42 45 77 108 77 139
0 14 4 25 8 25 14 0 33 86 26 115 -4 16 -3 26 2 23 13 -8 19 86 17 267 -2 176
-11 287 -23 295 -5 3 -11 22 -15 43 -4 20 -11 37 -17 37 -5 0 -7 4 -4 9 12 18
-48 103 -98 141 -92 69 -115 73 -436 74 l-285 1 0 -1037z m411 803 c87 -1 122
-27 147 -106 15 -50 18 -96 18 -270 1 -115 -2 -230 -6 -255 -9 -60 -35 -112
-62 -126 -13 -6 -20 -14 -16 -17 3 -4 -7 -7 -23 -7 -16 -1 -59 -2 -97 -3 -61
-2 -67 0 -68 18 0 11 0 169 1 352 1 217 -3 339 -9 352 -7 13 -8 22 -1 26 5 3
10 14 10 24 0 12 7 17 23 15 12 -1 49 -3 83 -3z m431 -143 c-3 -8 -6 -5 -6 6
-1 11 2 17 5 13 3 -3 4 -12 1 -19z m0 -80 c-3 -8 -6 -5 -6 6 -1 11 2 17 5 13
3 -3 4 -12 1 -19z m20 0 c-3 -8 -6 -5 -6 6 -1 11 2 17 5 13 3 -3 4 -12 1 -19z
m-14 -468 c3 -11 1 -20 -4 -20 -5 0 -9 9 -9 20 0 11 2 20 4 20 2 0 6 -9 9 -20z"/>
<path d="M12155 10892 c-7 -4 -10 -363 -10 -1040 0 -681 3 -1032 10 -1032 6 0
4 -4 -3 -9 -19 -12 259 -21 281 -9 16 8 17 64 15 1051 l-3 1042 -140 2 c-77 2
-144 0 -150 -5z"/>
<path d="M12832 10893 l-53 -4 2 -1044 1 -1043 154 -1 154 -2 0 496 0 496 96
-2 c95 -3 96 -3 133 -39 l37 -36 2 -195 c2 -160 12 -619 16 -694 1 -19 8 -20
148 -20 80 0 148 2 151 5 10 11 -12 815 -22 818 -6 2 -11 25 -11 50 0 51 -27
135 -41 126 -5 -3 -6 1 -3 9 6 18 -72 87 -98 87 -30 0 -20 16 22 35 22 10 40
22 40 27 0 5 -5 6 -12 2 -7 -4 -8 -3 -4 4 4 6 13 9 21 6 16 -6 55 51 74 106
43 132 31 522 -19 634 -13 27 -33 61 -46 75 -13 14 -24 30 -24 34 0 5 -7 7
-15 4 -8 -4 -17 -1 -21 5 -4 7 -3 8 4 4 7 -4 12 -5 12 -2 0 9 -65 37 -117 50
-48 13 -449 19 -581 9z m613 -32 c3 -5 2 -12 -3 -15 -5 -3 -9 1 -9 9 0 17 3
19 12 6z m-132 -225 c15 -10 27 -21 28 -25 0 -3 3 -17 7 -31 4 -14 7 -119 7
-235 0 -198 -2 -212 -22 -252 -13 -23 -33 -45 -45 -49 -26 -8 -207 -8 -216 0
-3 3 0 6 6 6 16 0 15 579 -1 599 -9 12 -9 13 1 7 6 -4 12 -4 12 1 0 4 44 5 98
2 69 -4 105 -11 125 -23z m334 -118 c-3 -8 -6 -5 -6 6 -1 11 2 17 5 13 3 -3 4
-12 1 -19z m0 -80 c-3 -8 -6 -5 -6 6 -1 11 2 17 5 13 3 -3 4 -12 1 -19z m-30
-300 c-3 -8 -6 -5 -6 6 -1 11 2 17 5 13 3 -3 4 -12 1 -19z m-104 -255 c-7 -2
-19 -2 -25 0 -7 3 -2 5 12 5 14 0 19 -2 13 -5z"/>
<path d="M14176 10876 c-19 -66 -87 -596 -79 -609 3 -5 1 -12 -4 -16 -9 -5
-49 -270 -69 -446 -3 -27 -7 -63 -10 -80 -2 -16 -8 -55 -13 -85 -5 -30 -16
-107 -25 -170 -9 -63 -18 -126 -21 -140 -3 -14 -8 -54 -11 -90 -6 -73 -9 -91
-24 -172 -5 -32 -10 -61 -9 -65 1 -4 0 -10 -1 -13 -6 -13 -26 -186 -23 -192 5
-10 264 -10 279 0 6 4 12 21 12 37 0 17 7 77 16 135 8 58 17 125 19 150 l4 45
170 3 c154 2 171 1 177 -15 4 -9 12 -66 18 -125 6 -59 14 -108 18 -108 4 0 5
-11 2 -25 -2 -14 1 -32 8 -40 6 -8 9 -18 6 -24 -3 -5 -4 -16 0 -24 4 -12 30
-15 128 -16 126 -2 169 4 144 20 -9 6 -10 9 -1 9 9 0 10 7 3 26 -6 14 -10 44
-10 67 0 23 -7 51 -15 61 -8 11 -15 25 -15 30 0 6 5 4 11 -4 8 -11 9 -8 4 15
-4 17 -9 41 -10 55 -5 56 -17 139 -31 211 -8 41 -16 91 -18 110 -10 121 -41
317 -49 306 -5 -7 -6 -4 -2 10 5 20 -10 136 -51 378 -8 50 -17 114 -20 144 -2
29 -8 61 -13 70 -5 9 -9 32 -9 52 0 40 -21 186 -30 209 -3 8 -6 26 -8 40 -16
163 -35 284 -48 293 -6 4 -97 7 -203 6 -186 -2 -192 -2 -197 -23z m220 -431
c3 -28 8 -57 11 -65 4 -8 7 -26 9 -40 7 -78 16 -134 22 -144 4 -6 8 -38 9 -71
1 -33 5 -76 7 -95 3 -19 7 -55 10 -80 4 -44 22 -187 50 -397 8 -56 17 -106 20
-112 13 -20 -31 -26 -159 -21 -109 4 -129 7 -126 20 13 54 41 313 37 350 -4
33 -3 38 4 20 7 -22 8 -19 9 17 1 24 5 73 11 110 26 175 68 558 63 567 -4 8
-2 8 5 1 7 -6 14 -33 18 -60z m-269 13 c-3 -8 -6 -5 -6 6 -1 11 2 17 5 13 3
-3 4 -12 1 -19z m214 -111 c-10 -9 -11 -8 -5 6 3 10 9 15 12 12 3 -3 0 -11 -7
-18z m-4 -99 c-3 -8 -6 -5 -6 6 -1 11 2 17 5 13 3 -3 4 -12 1 -19z m320 -20
c-3 -8 -6 -5 -6 6 -1 11 2 17 5 13 3 -3 4 -12 1 -19z m80 -430 c-3 -8 -6 -5
-6 6 -1 11 2 17 5 13 3 -3 4 -12 1 -19z m-200 -30 c-3 -8 -6 -5 -6 6 -1 11 2
17 5 13 3 -3 4 -12 1 -19z m-7 -73 c0 -5 -5 -3 -10 5 -5 8 -10 20 -10 25 0 6
5 3 10 -5 5 -8 10 -19 10 -25z m233 -135 c3 -11 1 -18 -4 -14 -5 3 -9 12 -9
20 0 20 7 17 13 -6z m-782 -177 c-12 -20 -14 -14 -5 12 4 9 9 14 11 11 3 -2 0
-13 -6 -23z m646 -495 c-3 -8 -6 -5 -6 6 -1 11 2 17 5 13 3 -3 4 -12 1 -19z"/>
<path d="M14431 10174 c0 -11 3 -14 6 -6 3 7 2 16 -1 19 -3 4 -6 -2 -5 -13z"/>
<path d="M15120 9845 l0 -1056 133 3 132 3 0 580 c0 319 -3 655 -5 748 -4 132
-2 167 8 167 7 0 12 -6 10 -12 -1 -7 2 -35 6 -62 5 -33 10 -45 16 -36 5 8 6
-3 3 -28 -4 -29 -2 -42 6 -42 7 0 9 -5 6 -10 -6 -9 8 -102 21 -140 4 -11 7
-12 13 -1 6 10 10 9 14 -4 4 -9 3 -13 -2 -10 -5 3 -12 1 -16 -5 -8 -13 17
-130 28 -130 5 0 7 -7 3 -15 -3 -8 6 -70 20 -137 14 -68 30 -155 36 -195 6
-41 15 -70 21 -66 5 3 7 -3 3 -14 -3 -11 3 -62 15 -114 11 -52 23 -112 25
-134 3 -22 10 -45 15 -51 5 -6 6 -13 3 -17 -3 -3 2 -41 12 -84 10 -43 17 -81
16 -86 -1 -4 3 -28 9 -52 l11 -45 119 0 c103 0 118 2 123 18 13 41 27 163 20
173 -4 8 -3 9 4 5 8 -5 13 1 13 16 1 13 3 30 4 38 1 8 3 34 4 58 0 24 5 41 10
38 4 -3 13 27 19 67 6 40 18 110 27 157 8 46 13 91 10 98 -2 7 -1 11 4 8 5 -3
12 20 16 52 3 31 13 81 22 110 8 29 13 58 10 65 -2 6 2 33 9 58 8 26 13 57 13
70 -1 13 3 37 10 52 6 16 8 40 5 55 -4 22 -3 24 6 12 9 -12 11 -5 7 32 -3 27
0 51 7 58 14 14 47 197 39 218 -4 10 -2 13 5 8 8 -5 10 -1 5 10 -4 12 -2 15 8
12 8 -3 12 -12 10 -19 -2 -8 -6 -343 -9 -745 l-5 -731 131 -1 c126 -1 130 -1
136 21 3 12 6 486 6 1053 l0 1031 -192 -1 -192 -1 -13 -60 c-7 -33 -14 -88
-15 -121 -2 -34 -6 -57 -9 -52 -4 6 -10 -12 -13 -38 -4 -27 -16 -95 -26 -152
-11 -56 -19 -106 -18 -110 0 -4 -2 -14 -5 -22 -12 -29 -27 -132 -21 -142 4 -6
2 -13 -3 -17 -12 -8 -34 -137 -26 -157 3 -8 1 -14 -5 -14 -5 0 -13 -26 -17
-57 -9 -69 -10 -72 -35 -197 -13 -68 -16 -104 -10 -117 12 -22 13 -39 1 -20
-11 17 -15 6 -35 -114 -22 -126 -27 -149 -32 -154 -2 -2 -4 3 -4 13 0 11 -4
14 -12 10 -8 -5 -9 -2 -5 10 9 23 -3 97 -14 90 -5 -3 -6 1 -3 9 3 8 0 39 -6
68 -6 30 -12 61 -14 69 -2 8 -6 22 -9 30 -7 15 -15 77 -16 118 -1 13 -4 21 -8
19 -5 -3 -8 7 -9 21 -2 53 -20 172 -31 202 -7 18 -10 34 -14 77 -2 17 -7 29
-12 26 -5 -3 -7 3 -4 13 6 21 -15 148 -24 140 -2 -3 -5 3 -5 12 -2 39 -16 140
-25 177 -12 49 -16 72 -18 108 0 16 -4 26 -8 24 -5 -3 -9 16 -10 42 -1 26 -7
60 -13 76 -6 15 -13 53 -16 83 -5 56 -18 91 -38 104 -6 4 -91 8 -188 8 l-178
0 0 -1055z m947 708 c-3 -10 -5 -4 -5 12 0 17 2 24 5 18 2 -7 2 -21 0 -30z
m-500 -95 c-3 -7 -5 -2 -5 12 0 14 2 19 5 13 2 -7 2 -19 0 -25z m420 -210 c-3
-8 -6 -5 -6 6 -1 11 2 17 5 13 3 -3 4 -12 1 -19z m-570 -10 c-3 -8 -6 -5 -6 6
-1 11 2 17 5 13 3 -3 4 -12 1 -19z m550 -160 c-3 -8 -6 -5 -6 6 -1 11 2 17 5
13 3 -3 4 -12 1 -19z m-460 -170 c-3 -8 -6 -5 -6 6 -1 11 2 17 5 13 3 -3 4
-12 1 -19z m590 -110 c-3 -8 -6 -5 -6 6 -1 11 2 17 5 13 3 -3 4 -12 1 -19z
m120 -60 c-3 -7 -5 -2 -5 12 0 14 2 19 5 13 2 -7 2 -19 0 -25z m-310 -80 c-3
-8 -6 -5 -6 6 -1 11 2 17 5 13 3 -3 4 -12 1 -19z m-350 -100 c-3 -8 -6 -5 -6
6 -1 11 2 17 5 13 3 -3 4 -12 1 -19z m460 -80 c-3 -8 -6 -5 -6 6 -1 11 2 17 5
13 3 -3 4 -12 1 -19z m-230 -140 c-3 -8 -6 -5 -6 6 -1 11 2 17 5 13 3 -3 4
-12 1 -19z m150 -180 c-3 -8 -6 -5 -6 6 -1 11 2 17 5 13 3 -3 4 -12 1 -19z
m-290 -30 c-3 -8 -6 -5 -6 6 -1 11 2 17 5 13 3 -3 4 -12 1 -19z m20 -110 c-3
-8 -6 -5 -6 6 -1 11 2 17 5 13 3 -3 4 -12 1 -19z"/>
<path d="M16810 9849 c0 -1030 0 -1047 19 -1052 13 -3 21 1 24 12 4 14 5 14 6
-1 1 -16 14 -18 131 -18 l130 0 0 1056 0 1055 -155 -2 -155 -3 0 -1047z"/>
<path d="M17452 9848 l3 -1053 240 0 c136 1 272 6 314 13 159 25 253 122 301
310 11 42 19 86 19 97 0 11 1 310 1 665 1 635 -1 698 -32 765 -8 19 -14 22
-20 13 -6 -8 -7 -5 -3 10 13 46 -72 148 -157 187 -58 27 -91 32 -123 20 -14
-5 -16 -4 -7 3 25 18 -28 22 -286 22 l-252 0 2 -1052z m543 812 c3 -6 -1 -7
-9 -4 -18 7 -21 14 -7 14 6 0 13 -4 16 -10z m-62 -15 c15 -8 33 -13 40 -11 7
1 9 1 5 -1 -4 -2 3 -20 14 -39 11 -19 24 -51 29 -72 13 -55 11 -1324 -2 -1377
-21 -83 -85 -117 -203 -107 l-56 4 0 809 0 809 73 0 c43 0 83 -6 100 -15z
m334 -27 c-3 -8 -6 -5 -6 6 -1 11 2 17 5 13 3 -3 4 -12 1 -19z m-220 -130 c-3
-8 -6 -5 -6 6 -1 11 2 17 5 13 3 -3 4 -12 1 -19z m20 -1280 c-3 -8 -6 -5 -6 6
-1 11 2 17 5 13 3 -3 4 -12 1 -19z m-30 -80 c-3 -8 -6 -5 -6 6 -1 11 2 17 5
13 3 -3 4 -12 1 -19z m230 -10 c-3 -7 -5 -2 -5 12 0 14 2 19 5 13 2 -7 2 -19
0 -25z"/>
<path d="M18640 9845 l0 -1056 348 3 347 3 0 130 0 130 -193 2 c-105 1 -192 5
-192 8 0 3 0 157 0 343 l0 337 178 0 177 0 3 108 c2 97 1 107 -15 108 -15 0
-15 2 -3 7 27 12 20 31 -13 37 -17 3 -98 5 -180 3 -81 -2 -148 0 -150 4 -1 5
-1 146 1 315 l3 308 168 -2 c92 -1 177 1 189 4 21 5 22 11 22 128 0 98 -3 124
-14 128 -8 3 -164 6 -345 7 l-331 1 0 -1056z m667 809 c-3 -3 -12 -4 -19 -1
-8 3 -5 6 6 6 11 1 17 -2 13 -5z m-400 -46 c-3 -8 -6 -5 -6 6 -1 11 2 17 5 13
3 -3 4 -12 1 -19z m20 -610 c-3 -8 -6 -5 -6 6 -1 11 2 17 5 13 3 -3 4 -12 1
-19z m370 -230 c-3 -8 -6 -5 -6 6 -1 11 2 17 5 13 3 -3 4 -12 1 -19z m-390
-50 c-3 -7 -5 -2 -5 12 0 14 2 19 5 13 2 -7 2 -19 0 -25z"/>
<path d="M19105 8505 c-28 -25 -35 -35 -22 -35 15 0 17 -14 17 -155 0 -133 2
-155 15 -155 14 0 16 22 15 160 l-2 161 29 21 c47 36 48 38 18 38 -19 -1 -44
-13 -70 -35z"/>
<path d="M12352 8453 c-78 -38 -110 -129 -73 -207 45 -91 150 -118 238 -61 20
13 22 19 12 31 -10 13 -14 12 -31 -3 -14 -13 -36 -18 -75 -18 -49 0 -58 3 -84
32 -36 42 -45 75 -30 123 21 69 124 105 186 64 23 -15 45 -12 45 6 0 4 -16 17
-36 29 -42 25 -106 27 -152 4z"/>
<path d="M12677 8463 c-8 -13 -137 -295 -137 -299 0 -2 8 -4 18 -4 12 0 25 14
37 40 l18 40 83 0 82 0 12 -36 c10 -29 46 -60 58 -49 2 2 -28 72 -67 156 -63
139 -89 176 -104 152z m73 -179 c0 -7 -22 -11 -59 -11 l-60 0 15 34 c8 18 21
50 31 71 l16 37 28 -60 c15 -33 28 -65 29 -71z"/>
<path d="M12890 8313 l0 -158 82 2 c46 1 93 2 106 3 13 0 22 6 22 15 0 12 -16
15 -85 15 l-85 0 0 140 c0 133 -1 140 -20 140 -19 0 -20 -7 -20 -157z"/>
<path d="M13142 8313 c3 -140 5 -156 21 -159 16 -2 17 11 17 157 0 153 -1 159
-20 159 -20 0 -20 -5 -18 -157z"/>
<path d="M13270 8316 l0 -153 61 -6 c69 -6 149 11 178 37 52 47 65 134 29 197
-32 57 -84 79 -186 79 l-82 0 0 -154z m197 99 c35 -23 58 -65 57 -105 -2 -76
-61 -120 -158 -120 l-56 0 0 118 c0 65 3 122 8 126 11 12 123 -2 149 -19z"/>
<path d="M13695 8433 c-64 -134 -114 -243 -119 -261 -6 -17 -3 -19 15 -15 13
4 28 21 37 45 l15 38 82 0 81 0 18 -40 c11 -26 24 -40 36 -40 23 0 25 -5 -58
175 -33 72 -67 131 -75 133 -8 2 -22 -12 -32 -35z m59 -79 c36 -79 35 -81 -29
-81 -30 0 -55 3 -55 8 0 9 51 129 56 129 1 0 14 -25 28 -56z"/>
<path d="M13920 8315 l0 -155 86 0 c98 0 142 16 176 62 52 74 24 189 -56 227
-32 16 -62 21 -124 21 l-82 0 0 -155z m186 103 c42 -20 66 -60 66 -106 -1 -79
-57 -122 -156 -122 l-56 0 0 118 c0 65 3 122 8 126 10 11 106 0 138 -16z"/>
<path d="M14504 8460 c-30 -12 -54 -49 -54 -81 0 -34 34 -62 103 -85 29 -9 58
-21 65 -27 18 -14 15 -41 -8 -62 -24 -22 -101 -16 -130 10 -20 18 -40 13 -40
-9 0 -12 48 -37 97 -51 28 -8 88 8 108 29 8 8 18 28 21 43 9 44 -26 80 -94 99
-94 26 -115 77 -42 102 27 10 55 7 101 -13 10 -4 19 0 23 10 12 32 -95 57
-150 35z"/>
<path d="M14730 8315 l0 -155 110 0 c91 0 110 3 110 15 0 12 -17 15 -90 15
l-90 0 0 55 0 55 80 0 c64 0 80 3 80 15 0 12 -16 15 -81 15 l-80 0 3 53 3 52
83 3 c64 2 82 6 82 17 0 12 -20 15 -105 15 l-105 0 0 -155z"/>
<path d="M15020 8315 c0 -148 1 -155 20 -155 17 0 20 7 20 44 l0 44 50 4 c50
3 51 3 82 -44 30 -44 62 -65 72 -49 3 4 -10 29 -29 55 l-34 48 25 21 c17 15
27 36 30 62 10 84 -44 125 -163 125 l-73 0 0 -155z m176 100 c18 -11 24 -24
24 -50 0 -54 -28 -75 -100 -75 l-60 0 0 68 c0 38 3 72 6 75 12 11 105 -1 130
-18z"/>
<path d="M15280 8461 c0 -6 25 -65 56 -132 30 -67 59 -132 64 -145 21 -53 43
-29 110 122 80 178 75 164 52 164 -15 0 -31 -26 -72 -120 -29 -67 -56 -123
-60 -125 -3 -2 -30 52 -60 120 -40 91 -60 125 -72 125 -10 0 -18 -4 -18 -9z"/>
<path d="M15618 8323 c-3 -140 3 -180 23 -167 5 3 9 75 9 160 0 128 -2 154
-14 154 -12 0 -16 -27 -18 -147z"/>
<path d="M15805 8450 c-99 -50 -119 -168 -41 -246 57 -57 150 -65 210 -19 32
24 6 41 -32 21 -125 -65 -249 85 -154 186 45 49 121 56 168 17 11 -9 18 -9 26
-1 14 14 5 27 -36 46 -46 22 -93 20 -141 -4z"/>
<path d="M16050 8315 c0 -148 1 -155 20 -155 19 0 20 7 20 155 0 148 -1 155
-20 155 -19 0 -20 -7 -20 -155z"/>
<path d="M16242 8453 c-55 -27 -86 -77 -86 -137 0 -209 311 -215 315 -7 3 118
-122 197 -229 144z m144 -40 c26 -17 54 -71 54 -105 0 -12 -9 -37 -20 -55 -45
-74 -139 -83 -197 -19 -98 107 42 259 163 179z"/>
<path d="M16600 8462 c0 -4 4 -12 9 -17 6 -6 33 -48 60 -94 44 -73 51 -91 51
-138 0 -46 2 -53 20 -53 17 0 20 7 20 51 0 46 7 63 60 149 33 53 60 100 60
104 0 3 -8 6 -18 6 -11 0 -34 -28 -65 -80 -27 -44 -51 -80 -55 -80 -4 0 -29
36 -55 80 -34 56 -54 80 -68 80 -10 0 -19 -4 -19 -8z"/>
<path d="M17040 8315 l0 -155 105 0 c87 0 105 3 105 15 0 12 -17 15 -91 15
l-90 0 3 53 3 52 78 3 c59 2 77 6 77 17 0 12 -17 15 -81 15 l-80 0 3 53 3 52
88 0 c76 0 87 2 87 18 0 15 -12 17 -105 17 l-105 0 0 -155z"/>
<path d="M17382 8453 c-42 -20 -69 -55 -82 -104 -37 -136 126 -248 243 -167
22 16 26 23 16 34 -10 12 -15 12 -31 -3 -14 -13 -36 -18 -74 -18 -47 0 -58 4
-85 31 -20 21 -32 44 -36 72 -14 101 105 172 193 115 18 -11 23 -11 34 2 10
13 6 18 -31 35 -53 24 -103 25 -147 3z"/>
<path d="M17681 8453 c-111 -55 -111 -230 -1 -277 86 -36 138 -27 193 33 49
54 57 107 25 169 -42 82 -137 114 -217 75z m146 -40 c25 -17 53 -71 53 -106 0
-31 -38 -88 -70 -104 -86 -44 -194 37 -176 130 16 87 117 129 193 80z"/>
<path d="M17980 8316 c0 -148 1 -156 20 -156 18 0 20 8 22 116 l3 116 89 -116
c123 -159 126 -158 126 39 0 148 -1 155 -20 155 -18 0 -20 -8 -22 -120 l-3
-120 -90 118 c-50 64 -98 118 -108 120 -15 3 -17 -10 -17 -152z"/>
<path d="M18392 8454 c-81 -41 -111 -128 -72 -208 37 -77 121 -111 198 -81
160 64 130 286 -40 301 -38 3 -63 0 -86 -12z m140 -40 c16 -9 33 -30 43 -59
16 -40 16 -49 4 -82 -27 -71 -115 -104 -179 -67 -96 57 -70 206 41 227 28 5
54 0 91 -19z"/>
<path d="M18690 8315 c0 -131 2 -155 15 -155 8 0 15 6 15 13 1 6 1 54 2 105 0
50 4 92 7 92 3 0 30 -41 59 -90 29 -50 57 -88 61 -85 5 2 30 43 57 90 27 46
52 85 57 85 4 0 7 -47 7 -105 0 -87 3 -105 15 -105 13 0 15 24 15 155 0 127
-3 155 -14 155 -8 0 -42 -50 -77 -111 -43 -77 -65 -106 -71 -97 -5 7 -33 57
-64 111 -30 53 -62 97 -70 97 -12 0 -14 -27 -14 -155z"/>
<path d="M19299 8438 c-7 -18 -39 -87 -70 -153 -31 -66 -55 -123 -52 -127 8
-15 35 6 54 43 l19 39 80 0 80 0 21 -43 c19 -40 49 -59 49 -33 0 6 -30 77 -67
158 -72 158 -89 175 -114 116z m64 -93 c15 -31 27 -59 27 -63 0 -4 -27 -8 -60
-8 -33 0 -60 2 -60 5 0 11 54 121 60 121 3 0 18 -25 33 -55z"/>
<path d="M14243 8150 c1 -39 4 -50 16 -48 16 3 35 62 27 84 -3 8 -14 14 -25
14 -16 0 -19 -7 -18 -50z"/>
<path d="M4185 7804 c-331 -52 -579 -360 -550 -686 16 -186 96 -337 241 -456
105 -86 221 -130 364 -138 190 -12 354 51 490 186 312 312 230 822 -165 1029
-33 17 -85 38 -115 46 -58 16 -213 27 -265 19z"/>
<path d="M7265 7792 c-116 -30 -219 -88 -299 -168 -125 -124 -184 -254 -193
-425 -16 -290 155 -545 432 -645 73 -26 92 -29 210 -29 117 1 138 3 205 28 98
36 168 79 239 147 157 152 230 378 187 585 -17 83 -78 221 -116 265 -12 14
-32 36 -44 50 -33 39 -116 104 -170 133 -126 69 -315 94 -451 59z"/>
</g>
</svg>
